{"glyphs":{"0":{"ha":669,"x_min":32,"x_max":624,"o":"m 320 -16 q 106 109 184 -16 q 50 257 68 170 q 32 460 32 345 q 112 848 32 718 q 340 978 191 978 q 624 485 624 978 q 545 115 624 242 q 320 -16 465 -16 m 335 897 q 177 790 234 897 q 121 469 121 683 q 176 165 121 270 q 328 64 230 64 q 477 167 424 64 q 534 476 534 275 q 335 897 534 897 z "},"1":{"ha":355,"x_min":-10,"x_max":305,"o":"m 219 0 l 219 885 q 163 865 193 876 q 103 844 133 854 q 44 823 73 833 q -10 804 15 812 l -10 891 l 305 1000 l 305 0 l 219 0 z "},"2":{"ha":619,"x_min":28,"x_max":593,"o":"m 28 0 l 28 83 l 286 357 q 398 483 352 429 q 463 570 444 538 q 505 718 505 636 q 457 850 505 803 q 323 897 410 897 q 76 784 203 897 l 76 890 q 330 978 192 978 q 524 909 456 978 q 593 727 593 840 q 545 546 593 627 q 345 304 498 466 l 134 81 l 588 81 l 588 0 l 28 0 z "},"3":{"ha":580,"x_min":10,"x_max":542,"o":"m 10 138 q 225 64 134 64 q 321 78 279 64 q 393 119 363 91 q 453 260 453 173 q 383 408 453 358 q 184 458 313 458 l 98 458 l 98 539 l 176 539 q 357 589 296 539 q 419 730 419 638 q 375 852 419 808 q 245 897 331 897 q 47 825 161 897 l 47 921 q 254 978 162 978 q 439 914 370 978 l 439 914 q 509 745 509 851 q 359 507 509 570 q 479 437 431 490 q 542 269 542 371 q 452 62 542 140 q 224 -16 363 -16 q 10 39 116 -16 l 10 138 z "},"4":{"ha":666,"x_min":-4,"x_max":638,"o":"m 513 265 l 513 0 l 427 0 l 427 265 l -4 265 l -4 332 l 433 962 l 513 962 l 513 345 l 638 345 l 638 265 l 513 265 m 427 776 l 427 812 l 417 797 l 104 345 l 427 345 l 427 776 z "},"5":{"ha":558,"x_min":26,"x_max":538,"o":"m 26 123 q 218 64 132 64 q 389 124 328 64 q 449 283 449 184 q 202 498 449 498 q 113 489 151 498 q 51 463 75 481 l 51 962 l 498 962 l 498 881 l 137 881 l 137 576 q 224 580 198 580 q 360 560 301 580 q 458 504 418 541 q 518 413 498 467 q 538 291 538 359 q 453 69 538 154 q 212 -16 368 -16 q 26 24 106 -16 l 26 123 z "},"6":{"ha":641,"x_min":29,"x_max":608,"o":"m 555 857 q 404 897 471 897 q 195 772 273 897 q 118 488 126 660 q 340 612 192 612 q 449 589 399 612 q 535 524 498 567 q 590 428 571 481 q 608 310 608 374 q 588 180 608 238 q 526 76 568 122 q 316 -16 444 -16 q 103 98 181 -16 q 29 424 29 211 q 126 825 29 675 q 406 978 226 978 q 483 971 446 978 q 555 951 520 964 l 555 857 m 327 530 q 247 514 283 530 q 182 465 211 497 q 139 396 154 433 q 124 319 124 359 q 180 138 124 216 q 321 64 233 64 q 462 130 406 64 q 519 298 519 195 q 467 467 519 403 q 327 530 414 530 z "},"7":{"ha":602,"x_min":-1,"x_max":589,"o":"m 210 0 l 116 0 l 479 881 l -1 881 l -1 962 l 589 962 l 589 929 l 210 0 z "},"8":{"ha":645,"x_min":29,"x_max":604,"o":"m 29 234 q 224 501 29 410 q 102 604 142 545 q 61 738 61 662 q 136 909 61 841 l 136 909 q 329 978 212 978 q 505 915 438 978 q 573 753 573 852 q 401 505 573 593 q 604 243 604 422 q 523 56 604 127 q 427 2 482 20 q 297 -16 371 -16 q 102 53 178 -16 q 29 234 29 123 m 150 747 q 313 547 150 618 q 484 745 484 616 q 439 857 484 817 q 320 897 395 897 q 254 885 285 897 q 198 853 223 874 q 162 805 174 831 q 150 747 150 779 l 150 747 m 515 235 q 465 367 515 315 q 309 456 414 420 q 162 363 205 412 q 117 236 117 313 q 170 113 117 162 q 317 64 224 64 q 463 113 410 64 q 515 235 515 164 l 515 235 z "},"9":{"ha":642,"x_min":20,"x_max":600,"o":"m 70 107 q 220 64 161 64 q 428 166 355 64 q 510 469 501 268 q 292 356 439 356 q 183 377 232 356 q 96 441 134 398 q 20 656 20 525 q 103 888 20 800 q 316 978 189 978 q 525 865 449 978 l 524 865 q 600 541 600 756 q 575 306 600 409 q 503 130 551 203 q 382 22 454 60 q 219 -16 311 -16 q 70 12 146 -16 l 70 107 m 307 897 q 166 833 221 897 q 110 669 110 768 q 165 497 110 559 q 306 437 219 437 q 445 495 388 437 q 503 637 503 555 q 447 825 503 753 q 307 897 394 897 z "},"\r":{"ha":0,"x_min":0,"x_max":0,"o":""}," ":{"ha":380,"x_min":0,"x_max":0,"o":""},"!":{"ha":149,"x_min":9,"x_max":140,"o":"m 114 263 l 31 263 l 25 962 l 120 962 l 114 263 m 74 -12 q 27 7 46 -12 q 9 54 9 26 q 27 101 9 83 q 74 119 46 119 q 121 101 102 119 q 140 54 140 83 q 121 7 140 26 q 74 -12 102 -12 z "},"\"":{"ha":338,"x_min":41,"x_max":291,"o":"m 284 643 l 209 643 l 202 962 l 291 962 l 284 643 m 123 643 l 47 643 l 41 962 l 129 962 l 123 643 z "},"#":{"ha":770,"x_min":4,"x_max":751,"o":"m 732 617 l 555 617 q 544 566 549 590 q 533 518 538 542 q 523 470 528 494 q 511 418 517 445 l 697 418 l 679 340 l 496 340 q 467 210 482 278 q 439 80 452 142 l 359 80 l 416 340 l 269 340 q 240 210 255 278 q 212 80 225 142 l 132 80 l 189 340 l 4 340 l 23 418 l 204 418 q 216 469 210 445 q 227 517 221 494 q 237 566 232 541 q 249 617 243 590 l 58 617 l 77 694 l 264 694 q 293 828 278 759 q 322 962 309 898 l 401 962 l 344 694 l 492 694 q 521 828 506 759 q 549 962 536 898 l 629 962 l 571 694 l 751 694 l 732 617 m 328 617 q 317 566 322 590 q 306 518 311 542 q 296 470 301 494 q 284 418 290 445 l 431 418 q 443 469 437 445 q 454 517 448 494 q 465 566 459 541 q 476 617 470 590 l 328 617 z "},"$":{"ha":532,"x_min":10,"x_max":513,"o":"m 300 -136 l 224 -136 l 224 0 q 112 17 167 3 q 10 58 57 32 l 10 156 q 119 102 66 121 q 224 81 173 83 l 224 450 q 118 518 160 487 q 55 577 77 550 q 10 712 10 634 q 26 800 10 759 q 71 876 41 841 q 224 959 127 941 l 224 1080 l 300 1080 l 300 962 q 471 930 395 960 l 471 831 q 300 880 392 878 l 300 505 q 400 442 359 472 q 464 384 440 412 q 513 245 513 324 q 498 157 513 198 q 454 83 482 116 q 387 33 427 53 q 300 4 347 13 l 300 -136 m 224 876 q 175 857 197 869 q 136 825 153 844 q 99 720 99 784 q 126 628 99 665 q 163 590 139 610 q 224 548 188 570 l 224 876 m 300 85 q 394 139 363 100 q 425 234 425 178 q 417 284 425 260 q 395 328 409 309 q 358 365 382 345 q 300 405 335 384 l 300 85 z "},"%":{"ha":1052,"x_min":31,"x_max":1004,"o":"m 260 476 q 92 547 154 476 q 31 726 31 616 q 96 912 31 846 q 267 981 161 981 q 432 912 372 981 q 493 727 493 846 q 429 548 493 621 q 260 476 366 476 m 266 901 q 156 854 196 901 q 117 724 117 808 q 155 599 117 646 q 262 554 194 554 q 368 600 330 554 q 408 728 408 649 q 369 857 408 814 q 266 901 331 901 m 269 -22 l 174 -22 l 753 961 l 846 961 l 269 -22 m 772 -16 q 604 54 667 -16 q 543 234 543 125 q 609 422 543 353 q 779 489 676 489 q 944 420 882 489 q 1004 235 1004 353 q 941 56 1004 127 q 772 -16 877 -16 m 777 409 q 669 363 709 409 q 629 233 629 316 q 667 107 629 152 q 774 62 705 62 q 880 108 842 62 q 920 236 920 154 q 882 366 920 323 q 777 409 844 409 z "},"&":{"ha":911,"x_min":30,"x_max":901,"o":"m 768 0 l 648 117 q 334 -16 517 -16 q 111 58 192 -16 q 30 248 30 132 q 81 410 30 340 q 239 530 133 479 q 166 643 192 587 q 141 748 141 699 q 209 911 141 844 q 385 978 278 978 q 541 920 483 978 q 597 776 597 863 q 541 615 597 684 q 476 556 513 583 q 382 504 439 530 q 433 451 406 479 q 493 391 460 423 q 563 323 525 359 q 645 245 600 286 q 722 521 717 360 l 810 521 q 781 344 808 428 q 705 184 755 260 q 760 131 732 158 q 814 79 788 104 q 862 34 840 55 q 901 -2 885 13 l 768 0 m 230 747 q 321 566 230 671 q 467 659 425 613 q 508 768 508 705 q 471 861 508 827 q 378 897 434 897 q 271 853 311 897 q 230 747 230 810 l 230 747 m 340 64 q 471 92 410 64 q 589 176 533 120 q 413 348 485 277 q 298 467 341 419 q 166 372 213 426 q 119 252 119 318 q 177 117 119 172 l 176 117 q 340 64 235 64 l 340 64 z "},"'":{"ha":158,"x_min":33,"x_max":121,"o":"m 115 643 l 39 643 l 33 962 l 121 962 l 115 643 z "},"(":{"ha":313,"x_min":10,"x_max":317,"o":"m 215 -213 q 10 369 10 28 q 218 962 10 726 l 317 962 q 96 370 96 709 q 313 -213 96 50 l 215 -213 z "},")":{"ha":313,"x_min":-9,"x_max":297,"o":"m -5 -213 q 211 370 211 50 q -9 962 211 708 l 90 962 q 297 369 297 724 q 92 -213 297 26 l -5 -213 z "},"*":{"ha":502,"x_min":5,"x_max":488,"o":"m 302 692 q 366 606 333 650 q 429 522 399 562 l 357 473 l 248 648 q 191 560 220 606 q 135 473 161 513 l 64 522 l 191 692 q 97 715 146 703 q 5 739 48 728 l 29 821 l 212 756 q 207 860 210 807 q 202 962 204 913 l 290 962 l 281 756 q 373 789 326 772 q 463 821 421 806 l 488 739 l 302 692 z "},"+":{"ha":622,"x_min":-4,"x_max":614,"o":"m 346 362 l 346 94 l 265 94 l 265 362 l -4 362 l -4 443 l 265 443 l 265 712 l 346 712 l 346 443 l 614 443 l 614 362 l 346 362 z "},",":{"ha":192,"x_min":-3,"x_max":197,"o":"m 75 -162 l -3 -162 l 102 174 l 197 174 l 75 -162 z "},"-":{"ha":480,"x_min":43,"x_max":427,"o":"m 43 362 l 43 447 l 427 447 l 427 362 l 43 362 z "},".":{"ha":189,"x_min":27,"x_max":159,"o":"m 92 -12 q 46 7 65 -12 q 27 54 27 26 q 46 101 27 83 q 92 119 65 119 q 140 101 120 119 q 159 54 159 83 q 140 7 159 26 q 92 -12 120 -12 z "},"/":{"ha":541,"x_min":-12,"x_max":543,"o":"m 76 -155 l -12 -155 l 452 962 l 543 962 l 76 -155 z "},":":{"ha":172,"x_min":19,"x_max":151,"o":"m 85 575 q 38 594 57 575 q 19 642 19 614 q 38 688 19 669 q 85 706 57 706 q 132 688 113 706 q 151 642 151 669 q 132 594 151 614 q 85 575 113 575 m 85 -12 q 38 7 57 -12 q 19 54 19 26 q 38 101 19 83 q 85 119 57 119 q 132 101 113 119 q 151 54 151 83 q 132 7 151 26 q 85 -12 113 -12 z "},";":{"ha":199,"x_min":-8,"x_max":199,"o":"m 133 575 q 86 594 104 575 q 68 642 68 614 q 86 688 68 669 q 133 706 104 706 q 180 688 161 706 q 199 642 199 669 q 180 594 199 614 q 133 575 161 575 m 70 -162 l -8 -162 l 98 174 l 193 174 l 70 -162 z "},"<":{"ha":617,"x_min":-7,"x_max":563,"o":"m -7 384 l -7 410 l 563 730 l 563 640 l 133 399 q 348 293 239 346 q 563 187 457 239 l 563 95 l -7 384 z "},"=":{"ha":679,"x_min":46,"x_max":664,"o":"m 46 490 l 46 570 l 664 570 l 664 490 l 46 490 m 46 236 l 46 317 l 664 317 l 664 236 l 46 236 z "},">":{"ha":616,"x_min":42,"x_max":612,"o":"m 42 95 l 42 187 l 472 399 q 257 519 366 458 q 42 640 149 580 l 42 730 l 612 410 l 612 384 l 42 95 z "},"?":{"ha":511,"x_min":-7,"x_max":498,"o":"m 205 260 q 198 283 201 270 q 192 310 195 296 q 188 340 189 325 q 186 368 186 355 q 195 427 186 400 q 219 477 203 454 q 256 523 235 501 q 302 566 277 545 q 341 604 321 585 q 375 647 360 624 q 400 696 391 669 q 409 753 409 722 q 398 811 409 785 q 367 856 387 838 q 318 884 347 874 q 257 893 290 893 q 148 870 199 893 q 65 807 97 848 l -7 848 q 258 978 72 974 q 353 963 309 978 q 429 921 397 949 q 479 852 461 892 q 498 759 498 811 q 487 687 498 720 q 459 628 476 655 q 419 577 441 601 q 374 531 397 553 q 320 478 341 499 q 286 439 298 456 q 270 406 274 422 q 265 369 265 390 q 272 311 265 340 q 286 260 278 282 l 205 260 m 237 -12 q 192 7 210 -12 q 173 54 173 26 q 192 101 173 83 q 237 119 210 119 q 285 101 266 119 q 304 54 304 83 q 299 28 304 41 q 285 7 294 16 q 264 -6 276 -1 q 237 -12 252 -12 z "},"@":{"ha":1154,"x_min":35,"x_max":1104,"o":"m 846 123 q 683 248 710 123 q 496 123 620 123 q 341 193 399 123 q 299 273 313 227 q 286 376 286 319 q 363 631 286 530 q 569 736 441 736 q 665 707 624 736 q 701 674 688 691 q 704 701 703 688 q 707 726 705 715 l 790 726 l 755 331 q 842 203 755 203 q 964 279 916 203 q 1015 482 1015 357 q 901 785 1015 671 q 579 897 786 897 q 397 860 481 897 q 250 758 314 824 q 156 603 188 689 q 123 415 123 516 q 244 82 123 205 q 574 -42 364 -42 q 855 19 733 -42 l 904 -41 q 568 -123 725 -123 q 180 26 327 -123 q 35 415 35 178 q 192 816 35 654 q 586 978 350 978 q 962 840 819 978 q 1104 489 1104 701 q 1086 344 1104 410 q 1031 227 1067 278 q 948 150 995 178 q 846 123 901 123 m 566 655 q 427 582 478 655 q 374 382 374 507 q 408 251 374 299 q 503 203 442 203 q 633 288 583 203 q 684 513 684 376 q 652 619 684 583 q 566 655 621 655 z "},"A":{"ha":832,"x_min":5,"x_max":815,"o":"m 713 0 l 606 294 l 214 294 q 159 147 187 222 q 105 0 131 71 l 5 0 l 372 972 l 452 972 l 815 0 l 713 0 m 420 800 q 414 817 416 808 q 410 833 412 825 q 399 801 404 814 l 399 802 q 360 695 379 747 q 322 591 341 643 q 285 487 304 539 q 246 380 266 435 l 573 380 l 420 800 z "},"B":{"ha":642,"x_min":44,"x_max":608,"o":"m 44 0 l 44 972 l 306 972 q 492 909 422 972 q 563 741 563 845 q 528 606 563 664 q 427 516 492 548 q 548 448 500 498 q 608 283 608 384 q 527 79 608 159 q 311 0 446 0 l 44 0 m 136 886 l 136 547 l 254 547 q 411 595 352 547 q 469 729 469 645 q 280 886 469 886 l 136 886 m 136 460 l 136 85 l 298 85 q 459 135 404 85 q 515 278 515 185 q 262 460 515 460 l 136 460 z "},"C":{"ha":809,"x_min":26,"x_max":785,"o":"m 479 -16 q 152 117 279 -16 q 26 467 26 253 q 163 845 26 703 q 510 988 300 988 q 785 883 665 985 l 713 818 q 616 882 667 861 q 509 903 565 903 q 229 786 337 903 q 121 474 121 669 q 223 178 121 286 l 222 178 q 484 70 325 70 q 592 91 541 70 q 689 155 643 112 l 761 90 q 479 -16 640 -14 z "},"D":{"ha":827,"x_min":45,"x_max":789,"o":"m 45 0 l 45 972 l 296 972 q 509 942 416 972 q 663 852 601 911 q 758 704 726 792 q 789 499 789 615 q 654 138 789 278 q 281 0 518 0 l 45 0 m 137 886 l 137 85 l 273 85 q 587 191 477 85 q 695 497 695 296 q 286 886 695 886 l 137 886 z "},"E":{"ha":532,"x_min":43,"x_max":533,"o":"m 43 0 l 43 972 l 511 972 l 511 886 l 134 886 l 134 533 l 484 533 l 484 448 l 134 448 l 134 85 l 533 85 l 533 0 l 43 0 z "},"F":{"ha":507,"x_min":42,"x_max":511,"o":"m 134 886 l 134 526 l 484 526 l 484 441 l 134 441 l 134 0 l 42 0 l 42 972 l 511 972 l 511 886 l 134 886 z "},"G":{"ha":829,"x_min":26,"x_max":786,"o":"m 511 988 q 779 883 660 985 l 707 818 q 503 903 616 903 q 224 785 330 903 q 120 482 120 668 q 145 310 120 387 q 218 178 171 233 q 334 98 267 125 q 484 70 400 70 q 597 82 545 70 q 694 119 648 94 l 694 411 l 471 411 l 471 497 l 786 497 l 786 72 q 471 -16 629 -16 q 149 119 272 -16 q 26 473 26 254 q 158 840 26 692 q 511 988 290 988 z "},"H":{"ha":797,"x_min":43,"x_max":742,"o":"m 650 0 l 650 454 l 136 454 l 136 0 l 43 0 l 43 972 l 136 972 l 136 540 l 650 540 l 650 972 l 742 972 l 742 0 l 650 0 z "},"I":{"ha":176,"x_min":39,"x_max":130,"o":"m 130 972 l 130 0 l 39 0 l 39 972 l 130 972 z "},"J":{"ha":372,"x_min":-16,"x_max":332,"o":"m 332 203 q 81 -153 332 -153 q 39 -150 62 -153 q -16 -138 15 -146 l 19 -54 q 82 -66 51 -66 q 203 -1 166 -66 q 240 204 240 64 l 240 972 l 332 972 l 332 203 z "},"K":{"ha":676,"x_min":42,"x_max":663,"o":"m 536 0 l 134 452 l 134 0 l 42 0 l 42 972 l 134 972 l 134 548 q 228 653 179 599 q 325 761 276 707 q 422 869 374 815 q 517 972 471 922 l 637 972 l 211 500 q 323 377 266 440 q 437 250 380 314 q 552 123 495 186 q 663 0 609 60 l 536 0 z "},"L":{"ha":509,"x_min":41,"x_max":512,"o":"m 41 0 l 41 972 l 132 972 l 132 85 l 512 85 l 512 0 l 41 0 z "},"M":{"ha":1010,"x_min":44,"x_max":953,"o":"m 864 0 l 864 685 l 868 763 q 693 381 781 572 q 519 0 606 190 l 482 0 l 134 761 q 135 731 134 746 q 136 701 135 715 l 136 0 l 44 0 l 44 972 l 125 972 l 484 200 q 484 198 484 199 q 484 196 484 197 q 487 188 486 192 q 490 183 489 184 l 490 185 l 492 181 q 498 162 495 169 q 500 158 500 159 q 503 153 501 156 q 509 172 505 160 q 520 203 513 184 l 873 972 l 953 972 l 953 0 l 864 0 z "},"N":{"ha":838,"x_min":42,"x_max":783,"o":"m 718 0 l 150 770 q 142 781 146 775 q 134 793 138 787 l 134 0 l 42 0 l 42 972 l 112 972 l 675 209 q 684 198 680 203 q 692 184 688 192 q 692 203 692 195 q 692 220 692 212 l 692 972 l 783 972 l 783 0 l 718 0 z "},"O":{"ha":981,"x_min":28,"x_max":939,"o":"m 480 -16 q 151 121 274 -16 q 28 476 28 258 q 154 847 28 707 q 498 988 280 988 q 817 852 696 988 q 939 500 939 718 q 815 123 939 261 q 480 -16 688 -16 m 487 903 q 225 788 328 903 q 122 484 122 671 q 220 181 122 293 q 479 70 315 70 q 631 98 564 70 q 747 180 698 127 q 820 313 794 235 q 846 490 846 392 q 749 794 846 687 q 487 903 652 903 z "},"P":{"ha":600,"x_min":40,"x_max":595,"o":"m 132 379 l 132 0 l 40 0 l 40 972 l 281 972 q 515 902 435 972 q 595 694 595 831 q 505 468 595 557 q 254 379 414 379 l 132 379 m 132 886 l 132 466 l 253 466 q 438 524 376 466 q 501 686 501 581 q 270 886 501 886 l 132 886 z "},"Q":{"ha":965,"x_min":19,"x_max":930,"o":"m 589 -205 q 426 -14 431 -205 q 266 27 337 -7 q 136 127 194 62 q 19 476 19 258 q 144 847 19 707 q 489 988 271 988 q 808 852 687 988 q 930 500 930 717 q 810 127 930 260 q 513 -15 694 -3 q 533 -100 514 -76 q 597 -123 553 -123 q 667 -101 631 -123 l 694 -176 q 589 -205 634 -205 m 477 903 q 216 788 318 903 q 113 484 113 671 q 210 181 113 293 q 470 70 307 70 q 621 98 554 70 q 738 180 688 127 q 810 313 785 235 q 836 490 836 392 q 739 794 836 687 q 627 876 691 848 q 477 903 562 903 z "},"R":{"ha":656,"x_min":39,"x_max":633,"o":"m 530 0 l 292 422 l 132 422 l 132 0 l 39 0 l 39 972 l 315 972 q 522 901 446 972 l 522 901 q 597 713 597 830 q 535 534 597 607 q 380 444 478 467 q 443 334 410 391 q 507 221 475 278 q 571 109 539 165 q 633 0 603 53 l 530 0 m 132 886 l 132 507 l 281 507 q 444 561 385 507 q 503 707 503 612 q 449 839 503 791 q 295 886 395 886 l 132 886 z "},"S":{"ha":577,"x_min":9,"x_max":557,"o":"m 235 -15 q 9 72 113 -10 l 66 141 q 245 71 155 71 q 404 112 350 70 q 458 231 458 155 q 422 338 458 298 q 363 388 404 359 q 258 453 322 416 q 72 597 113 539 q 32 735 32 656 q 114 915 32 842 q 330 988 196 988 q 557 901 454 983 l 500 832 q 322 903 412 903 q 178 857 229 903 q 126 743 126 812 q 135 682 126 709 q 161 636 143 656 q 222 587 179 616 q 325 522 265 557 q 435 450 389 486 q 505 385 481 414 q 551 243 551 324 q 471 56 551 127 q 236 -15 393 -16 l 235 -15 z "},"T":{"ha":642,"x_min":-2,"x_max":635,"o":"m 362 886 l 362 0 l 271 0 l 271 886 l -2 886 l -2 972 l 635 972 l 635 886 l 362 886 z "},"U":{"ha":763,"x_min":35,"x_max":718,"o":"m 718 391 q 368 -16 718 -16 q 35 377 35 -16 l 35 972 l 126 972 l 126 386 q 380 70 126 70 q 627 377 627 70 l 627 972 l 718 972 l 718 391 z "},"V":{"ha":817,"x_min":3,"x_max":804,"o":"m 427 0 l 359 0 l 3 972 l 105 972 l 382 202 q 389 180 386 191 q 396 159 393 170 q 403 180 399 169 q 411 203 407 191 l 705 972 l 804 972 l 427 0 z "},"W":{"ha":1234,"x_min":20,"x_max":1197,"o":"m 912 0 l 838 0 l 625 721 q 617 749 621 735 q 613 736 615 743 q 610 722 612 730 q 496 361 554 545 q 382 0 438 176 l 309 0 l 20 972 l 121 972 l 339 205 l 339 205 q 344 186 342 195 q 349 168 346 177 q 354 186 351 177 q 360 205 357 195 q 418 394 389 297 q 478 589 448 491 q 538 784 508 688 q 596 972 568 881 l 649 972 l 866 205 q 871 186 869 195 q 876 168 873 177 q 987 570 931 368 q 1099 972 1044 772 l 1197 972 l 912 0 z "},"X":{"ha":764,"x_min":16,"x_max":736,"o":"m 626 0 l 404 368 l 404 367 q 391 390 397 378 q 378 414 385 401 q 365 389 372 401 q 351 367 358 377 l 351 368 q 238 184 295 277 q 125 0 181 91 l 16 0 l 323 491 q 252 609 289 549 q 179 731 216 670 q 105 853 142 793 q 34 972 68 914 l 143 972 l 359 610 q 371 589 365 600 q 383 566 377 578 q 395 588 389 577 q 408 610 401 599 l 623 972 l 729 972 l 437 492 q 511 370 473 433 q 587 245 549 308 q 662 121 625 183 q 736 0 700 59 l 626 0 z "},"Y":{"ha":707,"x_min":-2,"x_max":701,"o":"m 387 370 l 387 0 l 296 0 l 296 368 q 222 517 260 441 q 147 670 184 593 q 72 823 109 747 q -2 972 34 899 l 101 972 l 325 509 q 334 490 329 501 q 345 465 339 479 q 355 486 349 475 q 366 508 360 496 q 423 623 393 564 q 483 741 453 682 q 543 858 513 800 q 601 972 573 917 l 701 972 l 387 370 z "},"Z":{"ha":722,"x_min":5,"x_max":705,"o":"m 142 85 l 696 85 l 696 0 l 5 0 l 5 37 l 567 886 l 51 886 l 51 972 l 705 972 l 705 937 l 142 85 z "},"[":{"ha":264,"x_min":36,"x_max":269,"o":"m 36 -213 l 36 962 l 269 962 l 269 881 l 122 881 l 122 -132 l 269 -132 l 269 -213 l 36 -213 z "},"\\":{"ha":541,"x_min":-12,"x_max":543,"o":"m 454 -155 l -12 962 l 79 962 l 543 -155 l 454 -155 z "},"]":{"ha":267,"x_min":-9,"x_max":224,"o":"m -9 -213 l -9 -132 l 137 -132 l 137 881 l -9 881 l -9 962 l 224 962 l 224 -213 l -9 -213 z "},"^":{"ha":584,"x_min":0,"x_max":572,"o":"m 480 458 l 287 844 q 189 651 239 749 q 92 458 139 553 l 0 458 l 265 978 l 308 978 l 572 458 l 480 458 z "},"_":{"ha":673,"x_min":39,"x_max":621,"o":"m 39 -175 l 39 -90 l 621 -90 l 621 -175 l 39 -175 z "},"`":{"ha":243,"x_min":-18,"x_max":254,"o":"m 163 775 l -18 1016 l 83 1016 l 254 775 l 163 775 z "},"a":{"ha":593,"x_min":23,"x_max":547,"o":"m 317 711 q 487 644 428 711 q 547 448 547 576 l 547 0 l 460 0 l 460 74 q 430 47 449 62 q 392 22 411 33 q 242 -16 321 -16 q 83 41 141 -16 q 23 186 23 98 q 52 285 28 243 q 112 356 76 328 q 194 399 148 385 q 289 414 239 414 q 376 402 332 414 q 460 368 420 391 q 460 409 460 388 q 460 449 460 429 q 418 584 455 537 q 311 630 381 630 q 104 545 196 629 l 50 603 q 317 711 153 711 m 113 188 q 148 99 113 134 q 249 64 184 64 q 397 111 339 64 l 397 110 q 440 151 424 132 q 459 185 456 170 l 459 286 q 375 325 417 313 q 295 337 334 337 q 223 326 257 337 q 165 296 190 315 q 126 249 140 276 q 113 188 113 221 z "},"b":{"ha":664,"x_min":40,"x_max":649,"o":"m 338 -16 q 126 90 200 -16 l 126 -1 l 41 4 l 40 1016 l 126 1016 l 126 584 q 235 675 175 644 q 365 711 295 705 q 574 618 499 711 l 574 618 q 649 372 649 526 q 564 92 649 198 q 338 -16 476 -16 m 126 192 q 167 143 146 166 q 214 103 189 120 q 272 75 240 85 q 342 64 303 64 q 430 86 390 64 q 498 147 469 108 q 544 245 528 189 q 560 370 560 301 q 504 562 560 490 q 440 612 477 595 q 358 630 403 629 q 126 495 220 618 l 126 192 z "},"c":{"ha":598,"x_min":22,"x_max":572,"o":"m 567 55 q 449 2 505 20 q 339 -16 392 -16 q 109 81 197 -16 q 22 336 22 180 q 48 485 22 416 q 120 605 75 554 q 232 683 169 656 q 371 711 296 711 q 572 648 475 712 l 523 582 q 362 630 444 630 q 181 549 252 630 q 111 339 111 469 q 175 139 111 214 q 342 64 238 64 q 519 123 438 64 l 567 55 z "},"d":{"ha":664,"x_min":3,"x_max":612,"o":"m 526 -1 l 526 90 q 314 -16 450 -16 q 88 92 176 -16 q 3 372 3 197 q 77 618 3 528 l 77 618 q 286 711 151 711 q 376 699 338 711 q 443 670 414 688 q 491 630 471 652 q 526 587 511 608 l 526 1016 l 612 1016 l 611 4 l 526 -1 m 526 495 q 420 589 479 555 q 293 630 360 623 q 212 612 249 629 q 148 562 174 595 q 92 370 92 490 q 107 245 92 301 q 153 147 123 189 q 222 86 182 108 q 309 64 262 64 q 379 75 348 64 q 437 103 411 85 q 484 143 463 120 q 526 192 506 166 l 526 495 z "},"e":{"ha":645,"x_min":26,"x_max":609,"o":"m 115 332 q 132 222 117 273 q 174 138 146 172 q 340 64 235 64 q 543 142 447 64 l 585 74 q 327 -16 459 -16 q 109 81 191 -16 q 46 196 67 130 q 26 351 26 263 q 47 490 26 426 q 112 606 69 554 q 213 683 155 654 q 338 711 271 711 q 540 618 469 711 q 609 372 609 528 l 609 332 l 115 332 m 519 412 q 466 574 513 517 q 336 630 418 630 q 254 615 291 630 q 189 570 218 600 q 145 503 162 542 q 119 412 127 463 l 519 412 z "},"f":{"ha":431,"x_min":1,"x_max":432,"o":"m 395 919 q 317 945 359 945 q 207 792 207 945 l 207 694 l 384 694 l 384 614 l 207 614 l 207 0 l 121 0 l 121 614 l 1 614 l 1 694 l 121 694 l 121 798 q 178 967 121 909 q 320 1026 235 1026 q 371 1018 342 1026 q 432 994 399 1010 l 395 919 z "},"g":{"ha":675,"x_min":18,"x_max":627,"o":"m 627 62 q 606 -106 627 -35 q 541 -222 585 -177 q 276 -314 456 -314 q 56 -254 176 -314 l 114 -184 q 277 -233 186 -233 q 541 46 541 -233 l 541 91 q 311 -16 458 -16 q 99 78 181 -16 q 18 336 18 172 q 105 605 18 500 q 337 711 193 711 q 453 687 402 711 q 541 618 504 663 l 541 694 l 627 694 l 627 62 m 541 509 q 338 630 450 630 q 172 551 235 630 q 106 340 106 471 q 165 136 106 209 l 165 136 q 318 64 224 64 q 541 197 460 66 l 541 509 z "},"h":{"ha":597,"x_min":39,"x_max":580,"o":"m 494 0 l 494 414 q 454 578 494 526 q 329 630 414 630 q 125 479 212 631 l 125 0 l 39 0 l 39 1016 l 125 1016 l 125 604 q 345 711 208 711 q 520 638 460 711 q 580 427 580 566 l 580 0 l 494 0 z "},"i":{"ha":138,"x_min":4,"x_max":130,"o":"m 66 837 q 23 854 41 837 q 4 901 4 872 q 9 926 4 914 q 23 945 15 937 q 43 958 32 954 q 66 962 54 962 q 111 946 92 962 q 130 901 130 929 q 125 876 130 887 q 112 856 120 864 q 91 842 103 847 q 66 837 79 837 m 24 0 l 24 694 l 111 694 l 111 0 l 24 0 z "},"j":{"ha":393,"x_min":-9,"x_max":368,"o":"m 304 837 q 260 854 279 837 q 241 901 241 872 q 247 926 241 914 q 261 945 252 937 q 281 958 270 954 q 304 962 292 962 q 349 946 330 962 q 368 901 368 929 q 363 876 368 887 q 350 856 358 864 q 329 842 341 847 q 304 837 317 837 m 348 32 q 99 -314 348 -314 q 47 -307 74 -314 q -9 -286 20 -300 l -9 -193 q 54 -223 25 -212 q 105 -233 82 -233 q 262 21 262 -233 l 262 694 l 348 694 l 348 32 z "},"k":{"ha":537,"x_min":39,"x_max":553,"o":"m 429 0 l 125 314 l 125 0 l 39 0 l 39 1016 l 125 1016 l 125 394 q 269 545 197 469 q 413 694 341 621 l 526 694 l 197 357 q 284 270 239 315 q 375 178 330 224 q 466 87 421 132 q 553 0 511 41 l 429 0 z "},"l":{"ha":292,"x_min":35,"x_max":298,"o":"m 121 185 q 140 95 121 123 q 204 67 159 67 q 298 100 238 67 l 298 14 q 244 -6 269 0 q 197 -13 218 -13 q 35 178 35 -13 l 35 1016 l 121 1016 l 121 185 z "},"m":{"ha":1027,"x_min":43,"x_max":967,"o":"m 881 0 l 881 415 q 844 584 881 536 q 730 630 810 630 q 603 566 657 630 q 549 405 549 504 l 549 0 l 463 0 l 463 420 q 307 630 463 629 q 205 593 250 624 q 129 504 160 562 l 129 0 l 43 0 l 43 694 l 129 694 l 129 611 q 218 686 170 661 q 323 711 267 711 q 395 699 361 711 q 456 666 429 688 q 494 627 477 648 q 521 579 511 605 q 556 629 536 608 q 600 668 575 650 q 734 711 663 711 q 967 426 967 711 l 967 0 l 881 0 z "},"n":{"ha":627,"x_min":39,"x_max":580,"o":"m 125 0 l 39 0 l 39 694 l 125 694 l 125 610 q 343 711 211 711 q 519 635 458 711 q 580 420 580 559 l 580 0 l 494 0 l 494 402 q 453 572 494 515 q 334 630 412 629 q 210 592 264 623 q 125 504 156 561 l 125 0 z "},"o":{"ha":727,"x_min":27,"x_max":686,"o":"m 357 -16 q 220 8 281 -16 q 115 84 160 33 q 27 343 27 184 q 50 497 27 430 q 119 613 73 564 q 363 711 212 711 q 600 613 512 711 q 686 346 686 516 q 597 85 686 185 q 357 -16 509 -16 m 361 630 q 182 555 250 630 q 116 342 116 480 q 181 140 116 216 q 359 64 247 64 q 535 138 473 64 q 597 347 597 212 q 536 557 597 485 q 361 630 475 630 z "},"p":{"ha":664,"x_min":40,"x_max":649,"o":"m 126 -307 l 40 -307 l 40 694 l 126 694 l 126 591 q 225 679 168 650 q 365 711 283 707 q 574 618 499 711 l 574 618 q 649 372 649 526 q 627 216 649 287 q 564 92 605 145 q 464 12 522 41 q 338 -16 406 -16 q 217 11 269 -18 q 126 90 165 39 l 126 -307 m 126 201 q 222 100 168 134 q 342 64 276 65 q 430 86 390 64 q 498 147 469 108 q 544 245 528 189 q 560 370 560 301 q 504 562 560 490 q 359 630 449 630 q 290 618 324 627 q 226 593 256 609 q 170 552 195 576 q 126 492 144 528 l 126 201 z "},"q":{"ha":665,"x_min":3,"x_max":612,"o":"m 526 90 q 435 11 487 39 q 314 -16 383 -18 q 87 92 174 -16 q 3 372 3 199 q 78 618 3 528 l 77 618 q 287 711 152 711 q 427 679 369 707 q 526 591 485 650 l 526 694 l 612 694 l 612 -307 l 526 -307 l 526 90 m 526 492 q 483 553 508 528 q 427 594 457 578 q 362 618 397 610 q 293 630 328 627 q 148 562 203 630 q 92 370 92 490 q 108 245 92 301 q 153 147 123 189 q 223 86 183 108 q 309 64 262 64 q 430 100 376 65 q 526 201 484 134 l 526 492 z "},"r":{"ha":376,"x_min":37,"x_max":378,"o":"m 378 593 q 295 627 331 627 q 122 505 186 630 l 122 0 l 37 0 l 37 694 l 122 694 l 122 616 q 204 686 160 663 q 300 707 249 709 q 339 704 319 707 q 378 692 359 700 l 378 593 z "},"s":{"ha":500,"x_min":19,"x_max":467,"o":"m 58 136 q 102 103 79 117 q 149 81 125 89 q 192 69 172 73 q 228 64 212 64 q 372 180 372 64 q 365 217 372 200 q 340 249 357 233 q 296 278 323 264 q 233 309 270 293 q 94 398 135 352 q 52 515 52 446 q 118 658 52 604 q 281 711 184 711 q 467 652 370 711 l 435 575 q 274 630 350 630 q 176 599 214 630 q 140 519 140 568 q 163 450 140 478 q 203 420 176 437 q 271 386 230 404 q 360 339 323 362 q 418 296 397 316 q 461 180 461 251 q 396 39 461 94 q 223 -16 333 -16 q 122 2 172 -16 q 19 58 71 21 l 58 136 z "},"t":{"ha":387,"x_min":-1,"x_max":384,"o":"m 384 16 q 328 -6 353 1 q 279 -13 302 -13 q 119 178 119 -13 l 119 614 l -1 614 l -1 694 l 119 694 l 119 888 l 205 888 l 205 694 l 381 694 l 381 614 l 205 614 l 205 185 q 223 95 205 123 q 288 67 242 67 q 357 90 321 67 l 384 16 z "},"u":{"ha":626,"x_min":34,"x_max":575,"o":"m 489 0 l 489 94 q 283 -16 398 -22 l 284 -16 q 34 295 34 -16 l 34 694 l 121 694 l 121 310 q 162 123 121 181 q 293 64 204 64 q 401 98 353 64 q 489 199 450 132 l 489 694 l 575 694 l 575 0 l 489 0 z "},"v":{"ha":636,"x_min":4,"x_max":621,"o":"m 345 0 l 272 0 l 4 694 l 99 694 l 302 154 q 306 141 304 148 q 310 129 308 135 q 314 141 312 135 q 319 152 317 146 l 319 151 l 528 694 l 621 694 l 345 0 z "},"w":{"ha":951,"x_min":20,"x_max":913,"o":"m 698 0 l 622 0 l 473 513 q 473 515 473 514 q 472 517 473 515 l 472 514 l 305 0 l 230 0 l 20 694 l 115 694 l 273 151 q 273 148 273 149 q 275 152 273 149 l 447 694 l 507 694 l 662 151 l 662 151 q 663 152 663 151 l 823 694 l 913 694 l 698 0 z "},"x":{"ha":613,"x_min":18,"x_max":586,"o":"m 350 340 q 464 170 404 258 q 577 0 523 81 l 469 0 l 298 272 l 284 251 q 284 249 286 252 q 281 245 283 247 q 277 239 279 242 q 273 233 275 236 l 273 233 q 198 117 237 176 q 122 0 159 58 l 18 0 l 249 339 q 194 426 222 381 q 135 517 165 471 q 77 608 106 563 q 22 694 48 652 l 123 694 l 276 449 q 290 426 283 435 q 301 408 296 416 l 324 446 l 484 694 l 586 694 l 350 340 z "},"y":{"ha":644,"x_min":18,"x_max":640,"o":"m 307 -129 q 267 -211 288 -176 q 221 -268 246 -245 q 166 -302 197 -291 q 99 -314 136 -314 q 65 -310 83 -314 q 31 -300 48 -307 l 58 -215 q 102 -228 75 -228 q 216 -125 174 -228 l 277 18 q 148 356 213 183 q 18 694 82 529 l 113 694 l 317 143 l 323 126 q 325 132 324 129 q 327 137 326 134 l 545 694 l 640 694 l 307 -129 z "},"z":{"ha":607,"x_min":12,"x_max":583,"o":"m 149 81 l 567 81 l 567 0 l 12 0 l 12 41 l 442 614 l 43 614 l 43 694 l 583 694 l 583 661 l 149 81 z "},"{":{"ha":304,"x_min":-5,"x_max":290,"o":"m 290 -214 q 206 -199 242 -212 q 146 -163 170 -187 q 109 -101 121 -138 q 97 -9 97 -63 l 97 184 q -5 342 97 328 l -5 408 q 97 554 97 422 l 97 759 q 109 850 97 812 q 146 912 121 888 q 206 949 170 937 q 290 963 242 961 l 290 882 q 206 850 227 879 q 191 807 196 834 q 185 740 185 781 l 185 549 q 108 373 185 416 q 185 189 185 329 l 185 9 q 206 -100 185 -69 q 290 -132 227 -130 l 290 -214 z "},"|":{"ha":165,"x_min":35,"x_max":123,"o":"m 35 -314 l 35 1049 l 123 1049 l 123 -314 l 35 -314 z "},"}":{"ha":304,"x_min":9,"x_max":303,"o":"m 303 342 q 202 184 202 328 l 202 -9 q 190 -101 202 -63 q 153 -163 178 -139 q 93 -200 129 -188 q 9 -214 56 -212 l 9 -132 q 90 -102 69 -130 q 113 9 113 -75 l 113 189 q 191 373 113 330 q 113 549 113 416 l 113 740 q 90 851 113 823 q 9 882 68 879 l 9 963 q 93 949 56 961 q 153 913 129 937 q 190 850 178 888 q 202 759 202 812 l 202 554 q 303 408 202 422 l 303 342 z "},"~":{"ha":648,"x_min":30,"x_max":606,"o":"m 606 490 q 556 354 600 403 q 440 306 513 306 q 301 363 374 306 q 194 416 235 416 q 106 313 115 416 l 30 313 q 44 390 32 355 q 78 448 57 424 q 129 484 100 471 q 195 496 159 496 q 262 482 228 496 q 330 442 297 468 q 369 413 353 425 q 397 395 386 401 q 443 386 418 386 q 530 490 517 386 l 606 490 z "},"Å":{"ha":833,"x_min":5,"x_max":816,"o":"m 714 0 l 606 294 l 214 294 q 160 147 188 222 q 106 0 132 71 l 5 0 l 350 911 q 266 1036 266 945 q 309 1133 266 1095 q 412 1171 353 1171 q 468 1161 442 1171 q 514 1134 494 1152 q 546 1091 534 1116 q 557 1036 557 1065 q 475 913 557 947 q 645 456 559 688 q 816 0 732 225 l 714 0 m 412 1100 q 360 1083 379 1100 q 341 1036 341 1065 q 361 990 341 1007 q 412 972 381 972 q 464 990 444 972 q 484 1036 484 1007 q 463 1084 484 1067 q 412 1100 442 1100 m 421 873 q 416 852 418 862 q 410 833 414 842 q 410 837 410 836 q 409 840 410 839 l 409 839 q 406 847 408 842 q 404 857 405 851 l 404 856 q 401 865 402 861 q 398 874 399 869 l 410 864 l 421 873 m 420 800 q 415 817 417 808 q 410 833 413 825 q 399 801 404 814 l 399 802 q 361 695 380 747 q 323 591 342 643 q 286 487 304 539 q 247 380 267 435 l 574 380 l 420 800 z "},"É":{"ha":694,"x_min":43,"x_max":533,"o":"m 43 0 l 43 972 l 511 972 l 511 886 l 134 886 l 134 533 l 484 533 l 484 448 l 134 448 l 134 85 l 533 85 l 533 0 l 43 0 m 264 1009 l 174 1009 l 346 1250 l 446 1250 l 264 1009 z "},"Ü":{"ha":900,"x_min":35,"x_max":718,"o":"m 718 391 q 368 -16 718 -16 q 35 377 35 -16 l 35 972 l 126 972 l 126 386 q 380 70 126 70 q 627 377 627 70 l 627 972 l 718 972 l 718 391 m 504 1012 q 482 1016 492 1012 q 463 1028 471 1021 q 449 1047 454 1036 q 444 1072 444 1059 q 449 1096 444 1085 q 463 1114 454 1107 q 481 1126 471 1122 q 503 1131 492 1131 q 526 1126 515 1131 q 546 1114 537 1122 q 560 1096 555 1106 q 566 1072 566 1085 q 548 1029 566 1046 q 504 1012 530 1012 m 287 1012 q 245 1028 263 1012 q 227 1072 227 1044 q 232 1096 227 1085 q 245 1114 237 1107 q 263 1126 253 1122 q 286 1131 274 1131 q 309 1126 298 1131 q 328 1114 319 1122 q 342 1096 337 1106 q 347 1072 347 1085 q 330 1029 347 1046 q 287 1012 313 1012 z "},"á":{"ha":686,"x_min":23,"x_max":547,"o":"m 317 711 q 487 644 428 711 q 547 448 547 576 l 547 0 l 460 0 l 460 74 q 430 47 449 62 q 392 22 411 33 q 242 -16 321 -16 q 83 41 141 -16 q 23 186 23 98 q 52 285 28 243 q 112 356 76 328 q 194 399 148 385 q 289 414 239 414 q 376 402 332 414 q 460 368 420 391 q 460 409 460 388 q 460 449 460 429 q 418 584 455 537 q 311 630 381 630 q 104 545 196 629 l 50 603 q 317 711 153 711 m 113 188 q 148 99 113 134 q 249 64 184 64 q 397 111 339 64 l 397 110 q 440 151 424 132 q 459 185 456 170 l 459 286 q 375 325 417 313 q 295 337 334 337 q 223 326 257 337 q 165 296 190 315 q 126 249 140 276 q 113 188 113 221 m 228 775 l 137 775 l 309 1016 l 410 1016 l 228 775 z "},"à":{"ha":686,"x_min":23,"x_max":547,"o":"m 317 711 q 487 644 428 711 q 547 448 547 576 l 547 0 l 460 0 l 460 74 q 430 47 449 62 q 392 22 411 33 q 242 -16 321 -16 q 83 41 141 -16 q 23 186 23 98 q 52 285 28 243 q 112 356 76 328 q 194 399 148 385 q 289 414 239 414 q 376 402 332 414 q 460 368 420 391 q 460 409 460 388 q 460 449 460 429 q 418 584 455 537 q 311 630 381 630 q 104 545 196 629 l 50 603 q 317 711 153 711 m 113 188 q 148 99 113 134 q 249 64 184 64 q 397 111 339 64 l 397 110 q 440 151 424 132 q 459 185 456 170 l 459 286 q 375 325 417 313 q 295 337 334 337 q 223 326 257 337 q 165 296 190 315 q 126 249 140 276 q 113 188 113 221 m 296 775 l 114 1016 l 215 1016 l 387 775 l 296 775 z "},"â":{"ha":686,"x_min":23,"x_max":547,"o":"m 317 711 q 487 644 428 711 q 547 448 547 576 l 547 0 l 460 0 l 460 74 q 430 47 449 62 q 392 22 411 33 q 242 -16 321 -16 q 83 41 141 -16 q 23 186 23 98 q 52 285 28 243 q 112 356 76 328 q 194 399 148 385 q 289 414 239 414 q 376 402 332 414 q 460 368 420 391 q 460 409 460 388 q 460 449 460 429 q 418 584 455 537 q 311 630 381 630 q 104 545 196 629 l 50 603 q 317 711 153 711 m 113 188 q 148 99 113 134 q 249 64 184 64 q 397 111 339 64 l 397 110 q 440 151 424 132 q 459 185 456 170 l 459 286 q 375 325 417 313 q 295 337 334 337 q 223 326 257 337 q 165 296 190 315 q 126 249 140 276 q 113 188 113 221 m 370 775 l 275 921 q 226 848 252 887 q 178 775 200 808 l 93 775 l 254 1021 l 298 1021 l 458 775 l 370 775 z "},"ä":{"ha":686,"x_min":23,"x_max":547,"o":"m 317 711 q 487 644 428 711 q 547 448 547 576 l 547 0 l 460 0 l 460 74 q 430 47 449 62 q 392 22 411 33 q 242 -16 321 -16 q 83 41 141 -16 q 23 186 23 98 q 52 285 28 243 q 112 356 76 328 q 194 399 148 385 q 289 414 239 414 q 376 402 332 414 q 460 368 420 391 q 460 409 460 388 q 460 449 460 429 q 418 584 455 537 q 311 630 381 630 q 104 545 196 629 l 50 603 q 317 711 153 711 m 113 188 q 148 99 113 134 q 249 64 184 64 q 397 111 339 64 l 397 110 q 440 151 424 132 q 459 185 456 170 l 459 286 q 375 325 417 313 q 295 337 334 337 q 223 326 257 337 q 165 296 190 315 q 126 249 140 276 q 113 188 113 221 m 372 775 q 350 780 360 775 q 331 792 339 784 q 317 811 322 800 q 312 836 312 822 q 317 859 312 848 q 330 878 322 870 q 349 889 338 885 q 370 894 359 894 q 394 889 382 894 q 414 877 405 885 q 428 859 422 869 q 433 836 433 848 q 415 792 433 810 q 372 775 397 775 m 155 775 q 113 791 131 775 q 94 836 94 808 q 99 859 94 848 q 113 878 104 870 q 131 889 121 885 q 153 894 142 894 q 176 889 165 894 q 196 877 187 885 q 210 859 205 869 q 215 836 215 848 q 198 792 215 810 q 155 775 180 775 z "},"ã":{"ha":686,"x_min":23,"x_max":568,"o":"m 317 711 q 487 644 428 711 q 547 448 547 576 l 547 0 l 460 0 l 460 74 q 430 47 449 62 q 392 22 411 33 q 242 -16 321 -16 q 83 41 141 -16 q 23 186 23 98 q 52 285 28 243 q 112 356 76 328 q 194 399 148 385 q 289 414 239 414 q 376 402 332 414 q 460 368 420 391 q 460 409 460 388 q 460 449 460 429 q 418 584 455 537 q 311 630 381 630 q 104 545 196 629 l 50 603 q 317 711 153 711 m 113 188 q 148 99 113 134 q 249 64 184 64 q 397 111 339 64 l 397 110 q 440 151 424 132 q 459 185 456 170 l 459 286 q 375 325 417 313 q 295 337 334 337 q 223 326 257 337 q 165 296 190 315 q 126 249 140 276 q 113 188 113 221 m 568 955 q 559 883 568 915 q 533 829 550 852 q 492 795 516 807 q 438 783 468 783 q 387 797 414 783 q 331 836 360 811 q 262 869 294 869 q 208 775 208 869 l 136 775 q 170 901 136 859 q 211 934 187 922 q 263 946 234 946 q 376 895 314 946 q 444 860 417 860 q 479 884 465 860 q 494 955 494 908 l 568 955 z "},"å":{"ha":576,"x_min":16,"x_max":540,"o":"m 334 775 q 278 784 303 775 q 231 811 252 793 q 189 909 189 848 q 231 1004 189 968 q 277 1033 251 1024 q 334 1042 302 1042 q 437 1005 397 1042 l 436 1005 q 477 909 477 968 q 435 812 477 850 q 334 775 392 775 m 334 972 q 283 955 302 972 q 264 909 264 937 q 283 862 264 880 q 334 845 303 845 q 385 863 365 845 q 405 909 405 880 q 384 956 405 939 q 334 972 363 972 m 311 724 q 480 656 421 724 q 540 460 540 589 l 540 13 l 454 13 l 454 87 q 423 60 442 75 q 385 35 404 46 q 235 -3 314 -3 q 76 54 134 -3 q 16 199 16 111 q 45 298 22 256 q 105 369 69 340 q 187 412 141 397 q 282 427 233 427 q 369 415 325 427 q 454 381 413 404 q 453 421 454 401 q 453 462 453 442 q 411 596 448 550 q 304 643 374 643 q 98 558 189 642 l 43 616 q 311 724 146 724 m 106 201 q 141 112 106 146 q 242 77 178 77 q 390 123 332 77 l 390 123 q 433 164 417 145 q 452 198 449 182 l 452 298 q 369 338 410 326 q 288 350 327 350 q 217 339 250 350 q 158 309 183 328 q 120 261 134 289 q 106 201 106 234 z "},"ç":{"ha":616,"x_min":22,"x_max":572,"o":"m 567 55 q 449 2 505 20 q 339 -16 392 -16 q 109 81 197 -16 q 22 336 22 180 q 48 485 22 416 q 120 605 75 554 q 232 683 169 656 q 371 711 296 711 q 572 648 475 712 l 523 582 q 362 630 444 630 q 181 549 252 630 q 111 339 111 469 q 175 139 111 214 q 342 64 238 64 q 519 123 438 64 l 567 55 m 262 -204 q 332 -210 311 -210 q 423 -163 423 -210 q 341 -120 423 -120 q 318 -121 332 -120 q 286 -125 304 -122 l 286 26 l 359 26 l 359 -50 q 507 -159 507 -54 q 328 -283 507 -283 q 262 -279 304 -283 l 262 -204 z "},"é":{"ha":701,"x_min":26,"x_max":609,"o":"m 115 332 q 132 222 117 273 q 174 138 146 172 q 340 64 235 64 q 543 142 447 64 l 585 74 q 327 -16 459 -16 q 109 81 191 -16 q 46 196 67 130 q 26 351 26 263 q 47 490 26 426 q 112 606 69 554 q 213 683 155 654 q 338 711 271 711 q 540 618 469 711 q 609 372 609 528 l 609 332 l 115 332 m 519 412 q 466 574 513 517 q 336 630 418 630 q 254 615 291 630 q 189 570 218 600 q 145 503 162 542 q 119 412 127 463 l 519 412 m 253 775 l 162 775 l 334 1016 l 435 1016 l 253 775 z "},"è":{"ha":701,"x_min":26,"x_max":609,"o":"m 115 332 q 132 222 117 273 q 174 138 146 172 q 340 64 235 64 q 543 142 447 64 l 585 74 q 327 -16 459 -16 q 109 81 191 -16 q 46 196 67 130 q 26 351 26 263 q 47 490 26 426 q 112 606 69 554 q 213 683 155 654 q 338 711 271 711 q 540 618 469 711 q 609 372 609 528 l 609 332 l 115 332 m 519 412 q 466 574 513 517 q 336 630 418 630 q 254 615 291 630 q 189 570 218 600 q 145 503 162 542 q 119 412 127 463 l 519 412 m 330 775 l 148 1016 l 249 1016 l 420 775 l 330 775 z "},"ê":{"ha":701,"x_min":26,"x_max":609,"o":"m 115 332 q 132 222 117 273 q 174 138 146 172 q 340 64 235 64 q 543 142 447 64 l 585 74 q 327 -16 459 -16 q 109 81 191 -16 q 46 196 67 130 q 26 351 26 263 q 47 490 26 426 q 112 606 69 554 q 213 683 155 654 q 338 711 271 711 q 540 618 469 711 q 609 372 609 528 l 609 332 l 115 332 m 519 412 q 466 574 513 517 q 336 630 418 630 q 254 615 291 630 q 189 570 218 600 q 145 503 162 542 q 119 412 127 463 l 519 412 m 393 775 l 298 921 q 249 848 275 887 q 201 775 223 808 l 116 775 l 277 1021 l 321 1021 l 481 775 l 393 775 z "},"ë":{"ha":701,"x_min":26,"x_max":609,"o":"m 115 332 q 132 222 117 273 q 174 138 146 172 q 340 64 235 64 q 543 142 447 64 l 585 74 q 327 -16 459 -16 q 109 81 191 -16 q 46 196 67 130 q 26 351 26 263 q 47 490 26 426 q 112 606 69 554 q 213 683 155 654 q 338 711 271 711 q 540 618 469 711 q 609 372 609 528 l 609 332 l 115 332 m 519 412 q 466 574 513 517 q 336 630 418 630 q 254 615 291 630 q 189 570 218 600 q 145 503 162 542 q 119 412 127 463 l 519 412 m 397 775 q 375 780 385 775 q 356 792 364 784 q 342 811 347 800 q 337 836 337 822 q 342 859 337 848 q 355 878 347 870 q 374 889 363 885 q 395 894 385 894 q 419 889 408 894 q 439 877 430 885 q 453 859 448 869 q 458 836 458 848 q 440 792 458 810 q 397 775 422 775 m 180 775 q 138 791 156 775 q 119 836 119 808 q 124 859 119 848 q 138 878 130 870 q 156 889 146 885 q 178 894 167 894 q 201 889 191 894 q 221 877 212 885 q 235 859 230 869 q 240 836 240 848 q 223 792 240 810 q 180 775 205 775 z "},"í":{"ha":247,"x_min":-92,"x_max":181,"o":"m 53 0 l 53 694 l 139 694 l 139 0 l 53 0 m -1 788 l -92 788 l 81 1029 l 181 1029 l -1 788 z "},"ì":{"ha":258,"x_min":-21,"x_max":252,"o":"m 137 0 l 137 694 l 223 694 l 223 0 l 137 0 m 161 788 l -21 1029 l 80 1029 l 252 788 l 161 788 z "},"î":{"ha":345,"x_min":-78,"x_max":287,"o":"m 123 0 l 123 694 l 210 694 l 210 0 l 123 0 m 199 788 l 104 934 q 55 861 81 900 q 7 788 29 821 l -78 788 l 83 1034 l 127 1034 l 287 788 l 199 788 z "},"ï":{"ha":337,"x_min":-70,"x_max":269,"o":"m 120 0 l 120 694 l 206 694 l 206 0 l 120 0 m 208 788 q 185 792 196 788 q 166 805 175 797 q 153 824 158 812 q 148 848 148 835 q 153 872 148 861 q 166 890 158 883 q 185 902 174 898 q 206 907 195 907 q 230 902 218 907 q 250 890 241 898 q 264 872 258 882 q 269 848 269 861 q 251 805 269 823 q 208 788 233 788 m -9 788 q -52 804 -33 788 q -70 848 -70 821 q -65 872 -70 861 q -52 890 -60 883 q -33 902 -43 898 q -11 907 -22 907 q 12 902 1 907 q 32 890 23 898 q 46 872 41 882 q 51 848 51 861 q 34 805 51 823 q -9 788 16 788 z "},"ñ":{"ha":743,"x_min":39,"x_max":617,"o":"m 125 0 l 39 0 l 39 694 l 125 694 l 125 610 q 343 711 211 711 q 519 635 458 711 q 580 420 580 559 l 580 0 l 494 0 l 494 402 q 453 572 494 515 q 334 630 412 629 q 210 592 264 623 q 125 504 156 561 l 125 0 m 617 955 q 608 883 617 915 q 582 829 599 852 q 541 795 565 807 q 487 783 517 783 q 436 797 463 783 q 380 836 409 811 q 311 869 343 869 q 257 775 257 869 l 184 775 q 218 901 184 859 q 259 934 236 922 q 312 946 283 946 q 425 895 363 946 q 493 860 466 860 q 528 884 513 860 q 543 955 543 908 l 617 955 z "},"ó":{"ha":779,"x_min":27,"x_max":686,"o":"m 357 -16 q 220 8 281 -16 q 115 84 160 33 q 27 343 27 184 q 50 497 27 430 q 119 613 73 564 q 363 711 212 711 q 600 613 512 711 q 686 346 686 516 q 597 85 686 185 q 357 -16 509 -16 m 361 630 q 182 555 250 630 q 116 342 116 480 q 181 140 116 216 q 359 64 247 64 q 535 138 473 64 q 597 347 597 212 q 536 557 597 485 q 361 630 475 630 m 288 775 l 197 775 l 370 1016 l 470 1016 l 288 775 z "},"ò":{"ha":779,"x_min":27,"x_max":686,"o":"m 357 -16 q 220 8 281 -16 q 115 84 160 33 q 27 343 27 184 q 50 497 27 430 q 119 613 73 564 q 363 711 212 711 q 600 613 512 711 q 686 346 686 516 q 597 85 686 185 q 357 -16 509 -16 m 361 630 q 182 555 250 630 q 116 342 116 480 q 181 140 116 216 q 359 64 247 64 q 535 138 473 64 q 597 347 597 212 q 536 557 597 485 q 361 630 475 630 m 345 775 l 163 1016 l 264 1016 l 436 775 l 345 775 z "},"ô":{"ha":779,"x_min":27,"x_max":686,"o":"m 357 -16 q 220 8 281 -16 q 115 84 160 33 q 27 343 27 184 q 50 497 27 430 q 119 613 73 564 q 363 711 212 711 q 600 613 512 711 q 686 346 686 516 q 597 85 686 185 q 357 -16 509 -16 m 361 630 q 182 555 250 630 q 116 342 116 480 q 181 140 116 216 q 359 64 247 64 q 535 138 473 64 q 597 347 597 212 q 536 557 597 485 q 361 630 475 630 m 423 775 l 328 921 q 279 848 305 887 q 231 775 253 808 l 146 775 l 307 1021 l 351 1021 l 511 775 l 423 775 z "},"ö":{"ha":779,"x_min":27,"x_max":686,"o":"m 357 -16 q 220 8 281 -16 q 115 84 160 33 q 27 343 27 184 q 50 497 27 430 q 119 613 73 564 q 363 711 212 711 q 600 613 512 711 q 686 346 686 516 q 597 85 686 185 q 357 -16 509 -16 m 361 630 q 182 555 250 630 q 116 342 116 480 q 181 140 116 216 q 359 64 247 64 q 535 138 473 64 q 597 347 597 212 q 536 557 597 485 q 361 630 475 630 m 429 775 q 407 780 417 775 q 388 792 396 784 q 374 811 379 800 q 369 836 369 822 q 374 859 369 848 q 387 878 379 870 q 406 889 395 885 q 427 894 416 894 q 451 889 439 894 q 471 877 462 885 q 485 859 479 869 q 490 836 490 848 q 472 792 490 810 q 429 775 454 775 m 212 775 q 170 791 188 775 q 151 836 151 808 q 156 859 151 848 q 170 878 161 870 q 188 889 178 885 q 210 894 199 894 q 233 889 222 894 q 253 877 244 885 q 267 859 262 869 q 272 836 272 848 q 255 792 272 810 q 212 775 237 775 z "},"õ":{"ha":779,"x_min":27,"x_max":686,"o":"m 357 -16 q 220 8 281 -16 q 115 84 160 33 q 27 343 27 184 q 50 497 27 430 q 119 613 73 564 q 363 711 212 711 q 600 613 512 711 q 686 346 686 516 q 597 85 686 185 q 357 -16 509 -16 m 361 630 q 182 555 250 630 q 116 342 116 480 q 181 140 116 216 q 359 64 247 64 q 535 138 473 64 q 597 347 597 212 q 536 557 597 485 q 361 630 475 630 m 627 955 q 618 883 627 915 q 592 829 609 852 q 551 795 575 807 q 497 783 527 783 q 446 797 473 783 q 390 836 419 811 q 321 869 353 869 q 267 775 267 869 l 195 775 q 229 901 195 859 q 270 934 246 922 q 322 946 293 946 q 435 895 373 946 q 503 860 476 860 q 538 884 524 860 q 553 955 553 908 l 627 955 z "},"ú":{"ha":743,"x_min":34,"x_max":575,"o":"m 489 0 l 489 94 q 283 -16 398 -22 l 284 -16 q 34 295 34 -16 l 34 694 l 121 694 l 121 310 q 162 123 121 181 q 293 64 204 64 q 401 98 353 64 q 489 199 450 132 l 489 694 l 575 694 l 575 0 l 489 0 m 290 775 l 199 775 l 371 1016 l 471 1016 l 290 775 z "},"ù":{"ha":743,"x_min":34,"x_max":575,"o":"m 489 0 l 489 94 q 283 -16 398 -22 l 284 -16 q 34 295 34 -16 l 34 694 l 121 694 l 121 310 q 162 123 121 181 q 293 64 204 64 q 401 98 353 64 q 489 199 450 132 l 489 694 l 575 694 l 575 0 l 489 0 m 322 775 l 140 1016 l 241 1016 l 413 775 l 322 775 z "},"û":{"ha":743,"x_min":34,"x_max":575,"o":"m 489 0 l 489 94 q 283 -16 398 -22 l 284 -16 q 34 295 34 -16 l 34 694 l 121 694 l 121 310 q 162 123 121 181 q 293 64 204 64 q 401 98 353 64 q 489 199 450 132 l 489 694 l 575 694 l 575 0 l 489 0 m 408 775 l 313 921 q 264 848 290 887 q 216 775 238 808 l 131 775 l 292 1021 l 336 1021 l 496 775 l 408 775 z "},"ü":{"ha":743,"x_min":34,"x_max":575,"o":"m 489 0 l 489 94 q 283 -16 398 -22 l 284 -16 q 34 295 34 -16 l 34 694 l 121 694 l 121 310 q 162 123 121 181 q 293 64 204 64 q 401 98 353 64 q 489 199 450 132 l 489 694 l 575 694 l 575 0 l 489 0 m 419 775 q 397 780 408 775 q 378 792 387 784 q 365 811 370 800 q 359 836 359 822 q 365 859 359 848 q 378 878 370 870 q 396 889 386 885 q 418 894 407 894 q 441 889 430 894 q 461 877 452 885 q 475 859 470 869 q 481 836 481 848 q 463 792 481 810 q 419 775 445 775 m 202 775 q 160 791 178 775 q 142 836 142 808 q 147 859 142 848 q 160 878 152 870 q 179 889 168 885 q 201 894 189 894 q 224 889 213 894 q 243 877 235 885 q 257 859 252 869 q 262 836 262 848 q 245 792 262 810 q 202 775 228 775 z "},"†":{"ha":454,"x_min":-6,"x_max":451,"o":"m 451 608 l 273 627 q 263 388 267 510 q 253 149 258 266 l 205 149 l 185 627 q 89 617 140 622 q -6 608 38 612 l -6 707 l 197 694 q 187 829 192 760 q 176 962 182 898 l 280 962 l 261 694 q 357 701 306 698 q 451 707 408 705 l 451 608 z "},"°":{"ha":408,"x_min":23,"x_max":378,"o":"m 201 607 q 76 660 127 607 q 23 786 23 713 q 75 910 23 859 q 199 962 127 962 q 325 910 273 962 q 378 786 378 859 q 326 659 378 713 q 201 607 273 607 m 201 886 q 131 857 160 886 q 102 786 102 827 q 131 713 102 743 q 199 683 159 683 q 267 713 240 683 q 297 786 297 745 q 269 858 297 829 q 201 886 241 886 z "},"¢":{"ha":552,"x_min":8,"x_max":538,"o":"m 534 150 q 452 112 492 126 q 371 94 411 98 l 371 -37 l 285 -37 l 285 94 q 174 127 222 100 q 86 199 125 153 q 8 442 8 294 q 85 688 8 588 q 172 769 123 739 q 285 811 222 799 l 285 943 l 371 943 l 371 817 q 450 803 408 815 q 538 771 492 791 l 512 686 q 371 736 440 730 l 371 174 q 442 194 409 179 q 509 234 475 208 l 534 150 m 285 729 q 151 637 201 709 l 151 637 q 96 446 96 559 q 111 343 96 391 q 151 258 125 294 q 210 205 174 227 q 285 175 245 182 l 285 729 z "},"£":{"ha":614,"x_min":9,"x_max":602,"o":"m 9 0 l 9 78 q 172 307 172 145 l 172 432 l 23 432 l 23 517 l 172 517 l 172 693 q 239 899 172 819 q 421 978 309 978 q 553 951 486 978 l 553 859 q 418 897 478 897 q 300 843 342 897 q 258 686 258 789 l 258 517 l 458 517 l 458 432 l 258 432 l 258 330 q 233 180 258 241 q 152 81 208 119 l 602 81 l 602 0 l 9 0 z "},"§":{"ha":458,"x_min":17,"x_max":438,"o":"m 438 460 q 345 276 438 355 q 400 146 400 227 q 337 10 400 65 q 178 -43 275 -43 q 23 -6 106 -43 l 23 89 q 179 38 117 38 q 277 67 244 38 q 311 144 311 96 q 292 203 311 175 q 261 233 283 218 q 206 265 239 249 q 109 321 148 294 q 52 374 70 348 q 17 494 17 426 q 111 663 17 604 q 60 726 79 690 q 42 804 42 762 q 100 946 42 892 q 257 999 158 999 q 329 992 294 999 q 397 970 363 985 l 397 877 q 326 908 361 898 q 256 918 290 918 q 131 808 131 918 q 163 732 131 763 q 215 696 181 715 q 298 654 248 677 q 438 460 438 590 m 192 618 q 189 617 191 618 q 186 616 188 616 q 181 618 184 616 l 192 618 m 321 537 q 186 616 292 569 q 106 498 106 578 q 140 406 106 439 q 275 326 174 372 q 332 384 313 355 q 350 460 350 413 q 321 537 350 507 z "},"•":{"ha":394,"x_min":22,"x_max":364,"o":"m 195 311 q 73 361 124 311 q 22 478 22 411 q 73 598 22 547 q 195 649 124 649 q 315 599 263 649 q 364 478 364 549 q 315 360 364 409 q 195 311 264 311 z "},"¶":{"ha":558,"x_min":13,"x_max":529,"o":"m 444 880 l 444 0 l 361 0 l 361 880 l 258 880 l 258 0 l 176 0 l 176 589 q 114 605 141 591 q 63 643 87 618 q 13 774 13 696 q 66 911 13 860 q 193 962 119 962 l 529 962 l 529 880 l 444 880 z "},"ß":{"ha":624,"x_min":37,"x_max":592,"o":"m 210 90 q 268 71 242 77 q 315 64 294 64 q 452 118 402 64 q 503 262 503 172 q 485 350 503 310 q 432 421 467 390 q 347 474 397 452 q 232 506 296 495 l 232 579 q 432 786 432 625 q 393 903 432 860 q 286 945 355 945 q 165 889 208 945 q 123 732 123 833 l 123 1 l 37 1 l 37 741 q 106 950 37 875 q 292 1026 174 1026 q 458 962 393 1026 q 521 795 521 898 q 374 551 521 628 q 525 450 467 519 q 575 365 558 410 q 592 266 592 319 q 516 63 592 143 q 318 -16 439 -16 q 269 -12 295 -16 q 210 -1 242 -8 l 210 90 z "},"­":{"ha":468,"x_min":38,"x_max":420,"o":"m 38 362 l 38 447 l 420 447 l 420 362 l 38 362 z "},"®":{"ha":1079,"x_min":29,"x_max":1029,"o":"m 530 -16 q 175 129 322 -16 q 29 479 29 275 q 176 832 29 688 q 528 978 325 978 q 882 832 733 978 q 1029 481 1029 687 q 883 130 1029 275 q 530 -16 737 -16 m 528 902 q 231 778 355 902 q 107 479 107 654 q 139 319 107 395 q 231 182 172 244 q 367 91 292 122 q 528 60 441 60 q 827 183 705 60 q 951 479 951 308 q 827 778 951 653 q 528 902 703 902 m 687 158 l 516 437 l 424 437 l 424 158 l 338 158 l 338 814 l 523 814 q 692 766 631 814 l 691 766 q 753 635 753 717 q 597 452 753 489 q 644 379 619 416 q 692 304 668 342 q 741 230 717 267 q 787 158 765 193 l 687 158 m 424 742 l 424 510 l 538 510 q 590 518 566 510 q 630 542 613 526 q 665 625 665 575 q 522 742 665 742 l 424 742 z "},"©":{"ha":1079,"x_min":29,"x_max":1029,"o":"m 530 -16 q 175 129 322 -16 q 29 479 29 275 q 176 832 29 688 q 528 978 325 978 q 882 832 733 978 q 1029 481 1029 687 q 883 130 1029 275 q 530 -16 737 -16 m 528 902 q 231 778 355 902 q 107 479 107 654 q 139 319 107 395 q 231 182 172 244 q 367 91 292 122 q 528 60 441 60 q 827 183 705 60 q 951 479 951 308 q 827 778 951 653 q 528 902 703 902 m 752 192 q 549 130 637 130 q 309 226 407 130 q 212 463 212 321 q 311 727 212 630 q 559 825 409 825 q 749 775 648 825 l 715 703 q 549 746 636 746 q 370 673 442 746 q 298 477 298 600 q 373 284 298 357 q 555 211 447 211 q 717 260 636 211 l 752 192 z "},"™":{"ha":966,"x_min":26,"x_max":905,"o":"m 825 504 l 825 803 q 760 652 793 728 q 696 504 728 576 l 635 504 l 512 799 l 512 504 l 433 504 l 433 962 l 530 962 l 668 624 q 741 793 704 707 q 813 962 777 880 l 905 962 l 905 504 l 825 504 m 250 885 l 250 504 l 171 504 l 171 885 l 26 885 l 26 962 l 396 962 l 396 885 l 250 885 z "},"´":{"ha":243,"x_min":-16,"x_max":257,"o":"m 75 775 l -16 775 l 157 1016 l 257 1016 l 75 775 z "},"¨":{"ha":412,"x_min":33,"x_max":372,"o":"m 311 775 q 289 780 299 775 q 270 792 278 784 q 256 811 261 800 q 251 836 251 822 q 256 859 251 848 q 269 878 261 870 q 288 889 277 885 q 309 894 298 894 q 333 889 321 894 q 353 877 344 885 q 367 859 361 869 q 372 836 372 848 q 354 792 372 810 q 311 775 336 775 m 94 775 q 52 791 70 775 q 33 836 33 808 q 38 859 33 848 q 52 878 43 870 q 70 889 60 885 q 92 894 81 894 q 115 889 104 894 q 135 877 126 885 q 149 859 144 869 q 154 836 154 848 q 137 792 154 810 q 94 775 119 775 z "},"Æ":{"ha":1076,"x_min":3,"x_max":1048,"o":"m 559 0 l 559 294 l 249 294 q 177 147 214 223 q 105 0 140 71 l 3 0 l 475 972 l 1027 972 l 1027 882 l 650 882 l 650 532 l 1000 532 l 1000 446 l 650 446 l 650 85 l 1048 85 l 1048 0 l 559 0 m 559 882 l 529 882 q 469 756 498 818 q 409 632 439 694 q 350 507 380 570 q 289 380 320 445 l 559 380 l 559 882 z "},"Ø":{"ha":997,"x_min":21,"x_max":955,"o":"m 83 -41 l 21 9 l 141 151 q 43 476 43 284 q 75 685 43 593 q 169 847 106 777 q 513 988 296 988 q 655 968 589 988 q 774 907 720 947 q 821 963 796 933 q 867 1017 846 992 l 930 965 l 836 853 q 925 698 895 786 q 955 500 955 610 q 830 123 955 260 q 496 -16 703 -16 q 195 91 317 -16 l 83 -41 m 718 838 q 503 903 628 903 q 240 788 342 903 q 138 484 138 673 q 154 341 138 406 q 203 224 170 276 l 718 838 m 254 161 q 494 70 348 70 q 646 98 578 70 q 762 180 713 127 q 835 313 809 235 q 861 490 861 392 q 839 653 861 579 q 775 782 817 727 l 254 161 z "},"±":{"ha":623,"x_min":-3,"x_max":615,"o":"m 347 413 l 347 144 l 266 144 l 266 413 l -3 413 l -3 494 l 266 494 l 266 762 l 347 762 l 347 494 l 615 494 l 615 413 l 347 413 m -3 0 l -3 81 l 615 81 l 615 0 l -3 0 z "},"¥":{"ha":651,"x_min":0,"x_max":640,"o":"m 389 512 l 605 512 l 605 432 l 361 432 l 361 298 l 605 298 l 605 217 l 361 217 l 361 0 l 275 0 l 275 217 l 33 217 l 33 298 l 275 298 l 275 432 l 33 432 l 33 512 l 246 512 q 185 623 216 566 q 123 738 155 680 q 60 851 92 795 q 0 962 29 908 l 97 962 l 301 582 l 300 582 q 311 562 307 570 q 320 545 316 553 q 330 568 326 557 q 340 585 335 578 l 340 585 q 443 773 391 677 q 546 962 495 869 l 640 962 l 389 512 z "},"µ":{"ha":602,"x_min":39,"x_max":580,"o":"m 494 0 l 494 90 q 288 -16 422 -16 q 125 47 185 -16 l 125 -255 l 39 -255 l 39 694 l 125 694 l 125 310 q 136 198 125 245 q 168 122 146 152 q 222 78 189 92 q 298 64 254 64 q 439 129 387 64 q 494 303 494 193 l 494 694 l 580 694 l 580 0 l 494 0 z "},"ª":{"ha":465,"x_min":22,"x_max":421,"o":"m 336 468 l 336 531 q 266 476 306 496 q 181 457 225 457 q 65 499 107 457 q 22 602 22 542 q 27 649 22 625 q 41 696 31 673 q 66 740 51 719 q 103 776 82 760 q 152 801 125 791 q 214 810 180 810 q 271 804 240 810 q 336 784 301 798 q 241 897 328 897 q 62 824 157 897 l 62 920 q 246 975 155 975 q 421 783 421 975 l 421 468 l 336 468 m 109 604 q 130 554 109 573 q 193 535 152 535 q 336 626 250 535 l 336 720 q 284 741 311 734 q 235 748 258 748 q 188 740 210 748 q 149 713 165 731 q 121 669 132 696 q 109 604 111 642 z "},"º":{"ha":541,"x_min":25,"x_max":506,"o":"m 265 454 q 167 472 211 454 q 91 528 123 490 q 25 713 25 602 q 93 905 25 836 q 269 975 163 975 q 442 905 379 975 q 506 715 506 835 q 441 530 506 603 q 265 454 376 454 m 268 897 q 155 848 197 897 q 113 712 113 798 q 155 582 113 629 q 267 534 197 534 q 378 582 338 534 q 417 716 417 630 q 378 849 417 801 q 268 897 339 897 z "},"ø":{"ha":808,"x_min":17,"x_max":779,"o":"m 659 580 q 720 346 720 488 q 631 85 720 185 q 391 -16 545 -16 q 278 1 329 -16 q 184 52 227 18 q 129 -8 158 24 q 75 -68 99 -41 l 17 -13 l 129 112 q 61 343 61 207 q 84 497 61 430 q 153 613 106 564 q 398 711 245 711 q 607 641 526 711 q 664 703 633 670 q 719 765 694 736 l 779 711 l 659 580 m 549 578 q 395 630 490 630 q 216 555 284 630 q 150 342 150 479 q 159 254 150 295 q 189 178 169 212 l 549 578 m 240 116 q 393 64 302 64 q 569 138 507 64 q 631 347 631 212 q 623 437 631 396 q 598 512 615 478 l 240 116 z "},"¿":{"ha":488,"x_min":2,"x_max":487,"o":"m 294 435 q 301 412 298 425 q 308 384 305 399 q 312 355 311 370 q 314 326 314 340 q 305 268 314 294 q 281 217 296 241 q 244 172 265 193 q 198 128 223 150 q 159 90 178 110 q 124 48 140 71 q 100 -1 109 25 q 91 -58 91 -28 q 102 -117 91 -91 q 133 -161 113 -143 q 180 -189 153 -180 q 242 -199 208 -199 q 350 -178 301 -199 q 436 -117 398 -158 l 487 -182 q 419 -235 451 -214 q 359 -266 387 -256 q 303 -279 333 -274 q 241 -283 273 -283 q 147 -269 191 -283 q 71 -226 103 -254 q 20 -157 39 -198 q 2 -64 2 -117 q 13 7 2 -25 q 40 66 23 39 q 80 117 58 93 q 125 163 102 140 q 180 216 159 194 q 213 255 201 237 q 230 288 225 272 q 235 326 235 304 q 228 383 235 354 q 214 435 221 412 l 294 435 m 262 706 q 308 687 290 706 q 326 640 326 668 q 308 593 326 611 q 262 575 290 575 q 214 593 233 575 q 195 640 195 611 q 200 666 195 654 q 214 687 205 678 q 235 701 223 696 q 262 706 248 706 z "}," ":{"ha":380,"x_min":0,"x_max":0,"o":""},"¡":{"ha":145,"x_min":3,"x_max":135,"o":"m 70 575 q 23 593 42 575 q 3 640 3 611 q 23 687 3 668 q 70 706 42 706 q 116 687 98 706 q 135 640 135 668 q 116 593 135 611 q 70 575 98 575 m 24 -267 l 30 433 l 113 433 l 119 -267 l 24 -267 z "},"¬":{"ha":666,"x_min":-5,"x_max":613,"o":"m 530 96 l 530 362 l -5 362 l -5 443 l 613 443 l 613 96 l 530 96 z "},"ƒ":{"ha":591,"x_min":-1,"x_max":590,"o":"m 527 852 q 488 882 505 882 q 366 762 382 882 l 346 627 l 456 627 l 456 547 l 334 547 q 303 322 319 433 q 272 98 288 212 q 199 -115 250 -51 l 199 -114 q 58 -182 144 -182 q -1 -170 33 -182 l -1 -89 q 34 -99 20 -96 q 55 -102 47 -102 q 185 98 159 -102 l 246 547 l 180 547 l 180 627 l 258 627 q 268 696 262 660 q 278 766 273 732 q 345 913 292 864 q 479 962 398 962 q 590 897 549 959 l 527 852 z "},"«":{"ha":538,"x_min":7,"x_max":514,"o":"m 406 131 l 214 363 l 406 601 l 514 601 l 319 363 q 367 307 342 337 q 417 246 391 277 q 467 186 442 216 q 513 131 491 157 l 406 131 m 199 131 l 7 363 l 198 601 l 306 601 l 111 363 q 159 307 134 336 q 209 247 184 277 q 259 188 234 217 q 306 131 283 158 l 199 131 z "},"»":{"ha":541,"x_min":14,"x_max":523,"o":"m 331 131 l 223 131 l 418 369 q 371 426 396 396 q 320 486 345 456 q 270 545 294 516 q 222 601 245 574 l 330 601 l 523 368 l 331 131 m 125 131 l 14 131 l 212 369 q 163 426 189 396 q 113 486 138 456 q 62 545 87 516 q 14 601 37 574 l 123 601 l 315 369 l 125 131 z "},"…":{"ha":825,"x_min":39,"x_max":770,"o":"m 703 -10 q 657 9 675 -10 q 638 56 638 28 q 657 102 638 84 q 703 121 675 121 q 751 102 731 121 q 770 56 770 84 q 765 30 770 42 q 750 9 760 18 q 729 -5 741 0 q 703 -10 717 -10 m 403 -10 q 377 -5 389 -10 q 356 9 365 0 q 342 30 347 18 q 337 56 337 42 q 356 102 337 84 q 403 121 375 121 q 450 102 431 121 q 469 56 469 84 q 464 30 469 42 q 450 9 459 18 q 429 -5 441 0 q 403 -10 416 -10 m 104 -10 q 58 9 77 -10 q 39 56 39 28 q 58 102 39 84 q 104 121 77 121 q 152 102 132 121 q 171 56 171 84 q 166 30 171 42 q 152 9 161 18 q 130 -5 142 0 q 104 -10 118 -10 z "},"Œ":{"ha":1190,"x_min":31,"x_max":1160,"o":"m 685 0 q 581 -12 630 -8 q 497 -16 532 -16 q 153 122 276 -16 q 31 476 31 258 q 63 685 31 593 q 158 848 94 778 q 508 988 285 988 q 600 984 555 988 q 686 972 644 981 l 1139 972 l 1139 886 l 762 886 l 762 533 l 1112 533 l 1112 448 l 762 448 l 762 85 l 1160 85 l 1160 0 l 685 0 m 670 888 q 588 899 629 895 q 504 903 547 903 q 227 787 330 903 q 125 484 125 669 q 151 315 125 393 q 222 182 177 238 q 339 99 271 127 q 496 70 408 70 q 582 74 538 70 q 670 87 625 79 l 670 888 z "},"œ":{"ha":1251,"x_min":38,"x_max":1190,"o":"m 695 332 q 713 223 698 273 q 755 138 728 172 l 755 138 q 920 64 815 64 q 1143 155 1029 64 l 1179 80 q 1042 8 1108 32 q 911 -16 976 -16 q 753 27 819 -16 q 650 156 688 71 q 537 27 608 71 q 368 -16 467 -16 q 125 85 214 -16 q 38 343 38 185 q 131 614 38 515 q 374 711 224 711 q 557 656 480 711 q 613 604 589 633 q 652 538 637 575 q 762 666 695 621 q 920 711 829 711 q 1120 618 1050 711 q 1190 372 1190 531 l 1190 332 l 695 332 m 1100 412 q 1046 574 1093 517 q 916 630 998 630 q 834 614 871 630 q 768 570 798 599 q 700 412 714 513 l 1100 412 m 372 630 q 193 555 260 630 q 127 342 127 480 q 192 140 127 215 q 370 64 257 64 q 546 138 484 64 q 608 347 608 212 q 547 557 608 485 q 372 630 486 630 z "},"–":{"ha":791,"x_min":41,"x_max":735,"o":"m 41 362 l 41 447 l 735 447 l 735 362 l 41 362 z "},"—":{"ha":1485,"x_min":47,"x_max":1410,"o":"m 47 362 l 47 447 l 1410 447 l 1410 362 l 47 362 z "},"“":{"ha":377,"x_min":9,"x_max":356,"o":"m 267 643 l 171 643 l 281 962 l 356 962 l 267 643 m 106 643 l 9 643 l 119 962 l 194 962 l 106 643 z "},"”":{"ha":378,"x_min":15,"x_max":361,"o":"m 252 643 l 176 643 l 263 962 l 361 962 l 252 643 m 88 643 l 15 643 l 104 962 l 199 962 l 88 643 z "},"‘":{"ha":178,"x_min":-8,"x_max":176,"o":"m 89 643 l -8 643 l 101 962 l 176 962 l 89 643 z "},"’":{"ha":177,"x_min":-2,"x_max":182,"o":"m 72 643 l -2 643 l 87 962 l 182 962 l 72 643 z "},"÷":{"ha":623,"x_min":-3,"x_max":615,"o":"m 307 565 q 281 570 293 565 q 261 584 270 575 q 248 604 253 593 q 243 629 243 616 q 261 674 243 656 q 307 692 280 692 q 351 674 333 692 q 369 629 369 656 q 351 584 369 603 q 307 565 333 565 m -3 362 l -3 443 l 615 443 l 615 362 l -3 362 m 307 113 q 281 118 293 113 q 261 132 270 123 q 248 153 253 141 q 243 178 243 164 q 261 222 243 204 q 307 240 280 240 q 351 222 333 240 q 369 178 369 204 q 351 132 369 151 q 307 113 333 113 z "},"ÿ":{"ha":625,"x_min":1,"x_max":622,"o":"m 289 -129 q 249 -211 270 -176 q 204 -268 229 -245 q 149 -302 179 -291 q 81 -314 119 -314 q 48 -310 66 -314 q 13 -300 31 -307 l 41 -215 q 84 -228 57 -228 q 199 -125 155 -228 l 259 18 q 130 356 195 183 q 1 694 64 529 l 96 694 l 300 143 l 306 126 q 309 137 307 131 l 528 694 l 622 694 l 289 -129 m 422 775 q 400 780 410 775 q 381 792 389 784 q 367 811 372 800 q 362 836 362 822 q 367 859 362 848 q 380 878 372 870 q 399 889 389 885 q 420 894 410 894 q 444 889 433 894 q 464 877 455 885 q 477 859 472 869 q 483 836 483 848 q 465 792 483 810 q 422 775 448 775 m 204 775 q 163 791 181 775 q 144 836 144 808 q 150 859 144 848 q 163 878 155 870 q 181 889 171 885 q 203 894 192 894 q 226 889 215 894 q 246 877 237 885 q 260 859 255 869 q 265 836 265 848 q 248 792 265 810 q 204 775 230 775 z "},"Ÿ":{"ha":750,"x_min":-2,"x_max":701,"o":"m 387 370 l 387 0 l 296 0 l 296 368 q 222 517 260 441 q 147 670 184 593 q 72 823 109 747 q -2 972 34 899 l 101 972 l 325 509 q 334 490 329 501 q 345 465 339 479 q 355 486 349 475 q 366 508 360 496 q 423 623 393 564 q 483 741 453 682 q 543 858 513 800 q 601 972 573 917 l 701 972 l 387 370 m 406 1010 q 384 1015 395 1010 q 365 1027 374 1019 q 352 1046 357 1035 q 347 1071 347 1057 q 352 1095 347 1084 q 365 1113 357 1105 q 384 1125 373 1120 q 405 1129 394 1129 q 428 1125 417 1129 q 448 1113 439 1120 q 463 1094 457 1105 q 468 1071 468 1084 q 450 1028 468 1045 q 406 1010 432 1010 m 189 1010 q 147 1027 165 1010 q 129 1071 129 1043 q 134 1095 129 1084 q 147 1113 139 1105 q 166 1125 155 1120 q 188 1129 176 1129 q 211 1125 200 1129 q 231 1113 222 1120 q 244 1094 239 1105 q 250 1071 250 1084 q 232 1028 250 1045 q 189 1010 215 1010 z "},"€":{"ha":642,"x_min":9,"x_max":613,"o":"m 613 41 q 420 -16 517 -16 q 213 76 298 -16 q 106 326 131 164 l 9 326 l 9 408 l 98 408 q 96 434 96 420 q 96 460 96 447 q 98 536 96 500 l 9 536 l 9 616 l 109 616 q 153 766 123 701 q 226 879 183 832 q 327 952 271 926 q 447 978 383 978 q 532 968 491 978 q 613 939 574 958 l 613 841 q 523 883 566 869 q 442 897 481 897 q 286 823 352 897 q 197 616 223 753 l 549 616 l 549 536 l 186 536 q 185 506 185 524 q 184 469 184 488 q 184 452 184 459 q 184 437 184 444 q 185 424 184 431 q 186 408 185 416 l 549 408 l 549 326 l 197 326 q 228 213 208 261 q 279 132 248 165 q 428 64 341 64 q 613 137 506 64 l 613 41 z "},"‹":{"ha":303,"x_min":-7,"x_max":292,"o":"m 185 131 l -7 363 l 184 601 l 292 601 l 97 363 q 144 307 119 337 q 194 246 169 277 q 244 186 220 216 q 290 131 269 157 l 185 131 z "},"›":{"ha":303,"x_min":5,"x_max":305,"o":"m 115 131 l 5 131 l 202 369 q 154 426 180 396 q 103 486 129 456 q 53 545 78 516 q 6 601 28 574 l 114 601 l 305 369 l 115 131 z "},"‡":{"ha":461,"x_min":-3,"x_max":454,"o":"m 454 338 l 265 356 q 275 252 270 307 q 284 149 280 197 l 180 149 l 199 356 q 97 347 151 352 q -3 338 44 342 l -3 437 l 190 425 q 201 490 195 459 q 212 555 207 521 q 201 621 207 591 q 190 686 195 650 q 93 680 143 684 q -3 673 42 677 l -3 773 l 199 754 q 194 805 197 779 q 190 858 192 831 q 184 911 187 885 q 180 962 182 938 l 284 962 l 265 755 q 360 764 311 760 q 454 773 410 769 l 454 673 l 275 686 q 263 621 269 652 q 252 555 257 590 q 263 490 258 519 q 275 425 269 460 q 365 431 317 427 q 454 437 413 434 l 454 338 z "},"·":{"ha":178,"x_min":22,"x_max":154,"o":"m 87 408 q 41 428 60 408 q 22 475 22 447 q 41 521 22 503 q 87 539 60 539 q 134 521 115 539 q 154 475 154 503 q 149 449 154 461 q 134 428 143 437 q 113 413 125 418 q 87 408 101 408 z "},"‚":{"ha":177,"x_min":-2,"x_max":182,"o":"m 73 -147 l -2 -147 l 87 169 l 182 169 l 73 -147 z "},"„":{"ha":377,"x_min":15,"x_max":361,"o":"m 252 -149 l 176 -149 l 264 169 l 361 169 l 252 -149 m 89 -149 l 15 -149 l 104 169 l 199 169 l 89 -149 z "},"‰":{"ha":1597,"x_min":38,"x_max":1549,"o":"m 268 476 q 100 547 160 476 q 38 726 38 616 q 103 912 38 845 q 274 981 170 981 q 439 912 378 981 q 500 727 500 847 q 437 548 500 620 q 268 476 374 476 m 273 901 q 164 854 203 901 q 124 724 124 808 q 163 599 124 644 q 269 554 200 554 q 376 600 337 554 q 414 728 414 648 q 377 858 414 814 q 273 901 339 901 m 276 -22 l 182 -22 l 760 961 l 853 961 l 276 -22 m 1316 -16 q 1148 54 1211 -16 q 1088 234 1088 123 q 1154 422 1088 355 q 1324 489 1220 489 q 1416 471 1375 489 q 1489 420 1458 452 q 1533 339 1518 386 q 1549 235 1549 293 q 1486 56 1549 129 q 1316 -16 1421 -16 m 1322 409 q 1214 363 1255 409 q 1174 233 1174 319 q 1183 162 1174 193 q 1212 107 1192 130 q 1318 62 1251 62 q 1425 108 1386 62 q 1464 236 1464 154 q 1426 366 1464 323 q 1322 409 1388 409 m 779 -16 q 611 54 674 -16 q 550 234 550 123 q 616 422 550 355 q 786 489 682 489 q 951 420 890 489 q 1012 235 1012 353 q 949 56 1012 129 q 779 -16 884 -16 m 785 409 q 676 363 717 409 q 636 233 636 316 q 674 107 636 152 q 781 62 713 62 q 888 108 849 62 q 927 236 927 154 q 889 366 927 323 q 785 409 851 409 z "},"Ê":{"ha":694,"x_min":43,"x_max":533,"o":"m 43 0 l 43 972 l 511 972 l 511 886 l 134 886 l 134 533 l 484 533 l 484 448 l 134 448 l 134 85 l 533 85 l 533 0 l 43 0 m 390 1012 l 295 1158 q 246 1084 272 1124 q 198 1012 220 1045 l 113 1012 l 274 1257 l 318 1257 l 477 1012 l 390 1012 z "},"Ë":{"ha":694,"x_min":43,"x_max":533,"o":"m 43 0 l 43 972 l 511 972 l 511 886 l 134 886 l 134 533 l 484 533 l 484 448 l 134 448 l 134 85 l 533 85 l 533 0 l 43 0 m 405 1011 q 383 1016 393 1011 q 364 1028 372 1020 q 350 1047 355 1036 q 345 1072 345 1058 q 350 1095 345 1084 q 363 1114 355 1106 q 382 1125 372 1121 q 404 1130 393 1130 q 427 1125 416 1130 q 447 1113 438 1121 q 461 1095 456 1105 q 467 1072 467 1084 q 449 1028 467 1046 q 405 1011 431 1011 m 188 1011 q 146 1027 164 1011 q 127 1072 127 1044 q 133 1095 127 1084 q 146 1114 138 1106 q 164 1125 154 1121 q 186 1130 175 1130 q 210 1125 199 1130 q 229 1113 220 1121 q 243 1095 238 1105 q 248 1072 248 1084 q 231 1028 248 1046 q 188 1011 214 1011 z "},"È":{"ha":694,"x_min":43,"x_max":533,"o":"m 43 0 l 43 972 l 511 972 l 511 886 l 134 886 l 134 533 l 484 533 l 484 448 l 134 448 l 134 85 l 533 85 l 533 0 l 43 0 m 321 1011 l 139 1252 l 240 1252 l 412 1011 l 321 1011 z "},"Í":{"ha":314,"x_min":7,"x_max":279,"o":"m 130 972 l 130 0 l 39 0 l 39 972 l 130 972 m 98 1011 l 7 1011 l 179 1252 l 279 1252 l 98 1011 z "},"Î":{"ha":314,"x_min":-96,"x_max":269,"o":"m 130 972 l 130 0 l 39 0 l 39 972 l 130 972 m 181 1012 l 86 1158 q 37 1084 63 1124 q -11 1012 11 1045 l -96 1012 l 65 1257 l 109 1257 l 269 1012 l 181 1012 z "},"Ï":{"ha":314,"x_min":-86,"x_max":253,"o":"m 130 972 l 130 0 l 39 0 l 39 972 l 130 972 m 191 1011 q 169 1016 180 1011 q 150 1028 159 1020 q 137 1047 142 1036 q 132 1072 132 1058 q 137 1095 132 1084 q 150 1114 142 1106 q 169 1125 158 1121 q 190 1130 179 1130 q 213 1125 202 1130 q 233 1113 224 1121 q 248 1095 242 1105 q 253 1072 253 1084 q 235 1028 253 1046 q 191 1011 217 1011 m -26 1011 q -68 1027 -50 1011 q -86 1072 -86 1044 q -81 1095 -86 1084 q -68 1114 -76 1106 q -49 1125 -60 1121 q -27 1130 -39 1130 q -4 1125 -15 1130 q 16 1113 7 1121 q 30 1095 24 1105 q 35 1072 35 1084 q 17 1028 35 1046 q -26 1011 0 1011 z "},"Ì":{"ha":314,"x_min":-94,"x_max":179,"o":"m 130 972 l 130 0 l 39 0 l 39 972 l 130 972 m 88 1011 l -94 1252 l 7 1252 l 179 1011 l 88 1011 z "},"Ú":{"ha":900,"x_min":35,"x_max":718,"o":"m 718 391 q 368 -16 718 -16 q 35 377 35 -16 l 35 972 l 126 972 l 126 386 q 380 70 126 70 q 627 377 627 70 l 627 972 l 718 972 l 718 391 m 371 1010 l 280 1010 l 452 1251 l 553 1251 l 371 1010 z "},"Û":{"ha":900,"x_min":35,"x_max":718,"o":"m 718 391 q 368 -16 718 -16 q 35 377 35 -16 l 35 972 l 126 972 l 126 386 q 380 70 126 70 q 627 377 627 70 l 627 972 l 718 972 l 718 391 m 498 1012 l 404 1158 q 354 1084 380 1124 q 307 1012 328 1045 l 221 1012 l 382 1257 l 427 1257 l 586 1012 l 498 1012 z "},"Ù":{"ha":900,"x_min":35,"x_max":718,"o":"m 718 391 q 368 -16 718 -16 q 35 377 35 -16 l 35 972 l 126 972 l 126 386 q 380 70 126 70 q 627 377 627 70 l 627 972 l 718 972 l 718 391 m 407 1011 l 225 1252 l 326 1252 l 498 1011 l 407 1011 z "},"ˆ":{"ha":366,"x_min":-3,"x_max":361,"o":"m 274 775 l 179 921 q 130 848 156 887 q 82 775 104 808 l -3 775 l 158 1021 l 202 1021 l 361 775 l 274 775 z "},"˜":{"ha":495,"x_min":27,"x_max":460,"o":"m 460 955 q 451 883 460 915 q 425 829 441 852 q 384 795 408 807 q 330 783 359 783 q 279 797 306 783 q 222 836 252 811 q 153 869 186 869 q 100 775 100 869 l 27 775 q 61 901 27 859 q 102 934 79 922 q 155 946 125 946 q 268 895 205 946 q 336 860 309 860 q 371 884 356 860 q 385 955 385 908 l 460 955 z "},"¸":{"ha":281,"x_min":28,"x_max":272,"o":"m 28 -204 q 97 -210 77 -210 q 189 -163 189 -210 q 106 -120 189 -120 q 83 -121 97 -120 q 52 -125 70 -122 l 52 26 l 125 26 l 125 -50 q 272 -159 272 -54 q 93 -283 272 -283 q 28 -279 69 -283 l 28 -204 z "},"Š":{"ha":566,"x_min":-1,"x_max":547,"o":"m 370 1034 l 326 1034 l 164 1282 l 252 1282 l 349 1135 q 399 1208 374 1171 q 448 1282 424 1245 l 534 1282 l 370 1034 m 225 -2 q -1 85 102 3 l 56 154 q 235 83 145 83 q 394 125 340 83 q 448 244 448 168 q 412 351 448 311 q 353 400 393 372 q 248 466 312 429 q 62 610 102 552 q 22 748 22 669 q 104 928 22 854 q 320 1001 186 1001 q 547 914 444 996 l 490 845 q 312 916 402 916 q 168 870 219 916 q 116 755 116 825 q 124 695 116 722 q 151 649 133 669 q 212 600 169 629 q 315 535 255 570 q 425 463 378 498 q 494 397 471 427 q 541 256 541 337 q 461 68 541 140 q 226 -2 382 -3 l 225 -2 z "},"š":{"ha":486,"x_min":10,"x_max":458,"o":"m 289 775 l 245 775 l 85 1021 l 172 1021 l 268 876 q 317 948 292 912 q 366 1021 342 985 l 450 1021 l 289 775 m 49 149 q 94 116 71 130 q 140 94 117 102 q 183 82 163 86 q 219 77 203 77 q 363 193 363 77 q 356 230 363 213 q 331 261 348 246 q 288 291 314 277 q 224 321 261 306 q 85 411 126 365 q 43 528 43 459 q 109 671 43 616 q 272 724 175 724 q 458 665 361 724 l 426 588 q 265 643 341 643 q 168 612 205 643 q 132 532 132 581 q 154 463 132 491 q 194 433 167 450 q 262 399 221 416 q 352 352 315 375 q 409 309 389 329 q 452 193 452 264 q 387 52 452 107 q 214 -3 324 -3 q 113 15 163 -3 q 10 71 62 34 l 49 149 z "},"Ž":{"ha":716,"x_min":11,"x_max":711,"o":"m 440 1013 l 396 1013 l 234 1261 l 322 1261 l 419 1114 q 469 1187 444 1150 q 517 1261 494 1224 l 604 1261 l 440 1013 m 147 98 l 702 98 l 702 13 l 11 13 l 11 50 l 572 899 l 56 899 l 56 985 l 711 985 l 711 950 l 147 98 z "},"ž":{"ha":597,"x_min":16,"x_max":587,"o":"m 357 775 l 313 775 l 153 1021 l 241 1021 l 336 876 q 385 948 360 912 q 434 1021 410 985 l 519 1021 l 357 775 m 153 94 l 571 94 l 571 13 l 16 13 l 16 54 l 446 627 l 47 627 l 47 707 l 587 707 l 587 673 l 153 94 z "},"¦":{"ha":150,"x_min":35,"x_max":123,"o":"m 35 467 l 35 1049 l 123 1049 l 123 467 l 35 467 m 35 -314 l 35 269 l 123 269 l 123 -314 l 35 -314 z "},"Ð":{"ha":903,"x_min":22,"x_max":865,"o":"m 121 0 l 121 441 l 22 441 l 22 525 l 121 525 l 121 972 l 371 972 q 740 852 614 972 q 865 499 865 732 q 829 298 865 390 q 728 137 793 206 q 567 35 660 69 q 357 0 473 0 l 121 0 m 213 886 l 213 525 l 479 525 l 479 441 l 213 441 l 213 85 l 348 85 q 661 191 552 85 q 771 497 771 295 q 361 886 771 886 l 213 886 z "},"ð":{"ha":675,"x_min":18,"x_max":637,"o":"m 336 711 q 459 680 405 711 q 352 818 408 761 q 253 768 305 794 q 154 719 201 742 l 119 788 l 294 873 q 209 942 255 907 q 111 1014 163 977 l 254 1014 q 314 969 285 992 q 375 915 342 945 q 474 965 423 939 q 574 1015 526 991 l 609 945 l 431 858 q 518 744 481 803 q 582 620 555 686 q 637 346 637 484 q 556 86 637 186 q 330 -16 472 -16 q 98 82 180 -16 q 18 343 18 180 q 105 608 18 505 q 336 711 192 711 m 336 630 q 171 552 232 630 q 106 342 106 471 q 167 138 106 212 l 166 138 q 331 64 227 64 q 488 139 431 64 q 549 347 549 215 q 336 630 549 630 z "},"Ý":{"ha":750,"x_min":-2,"x_max":701,"o":"m 387 370 l 387 0 l 296 0 l 296 368 q 222 517 260 441 q 147 670 184 593 q 72 823 109 747 q -2 972 34 899 l 101 972 l 325 509 q 334 490 329 501 q 345 465 339 479 q 355 486 349 475 q 366 508 360 496 q 423 623 393 564 q 483 741 453 682 q 543 858 513 800 q 601 972 573 917 l 701 972 l 387 370 m 282 1032 l 191 1032 l 363 1273 l 464 1273 l 282 1032 z "},"ý":{"ha":629,"x_min":18,"x_max":640,"o":"m 307 -129 q 267 -211 288 -176 q 221 -268 246 -245 q 166 -302 197 -291 q 99 -314 136 -314 q 65 -310 83 -314 q 31 -300 48 -307 l 58 -215 q 102 -228 75 -228 q 216 -125 174 -228 l 277 18 q 148 356 213 183 q 18 694 82 529 l 113 694 l 317 143 l 323 126 q 325 132 324 129 q 327 137 326 134 l 545 694 l 640 694 l 307 -129 m 225 775 l 134 775 l 307 1016 l 407 1016 l 225 775 z "},"Þ":{"ha":594,"x_min":38,"x_max":593,"o":"m 130 223 l 130 0 l 38 0 l 38 972 l 130 972 l 130 815 l 279 815 q 593 536 593 815 q 501 309 593 396 q 393 244 455 266 q 250 223 330 223 l 130 223 m 130 730 l 130 309 l 251 309 q 435 366 372 309 q 499 528 499 422 q 268 730 499 730 l 130 730 z "},"þ":{"ha":655,"x_min":40,"x_max":649,"o":"m 126 -307 l 40 -307 l 40 1016 l 126 1016 l 126 589 q 212 669 161 638 q 366 711 282 711 q 574 618 499 711 l 574 618 q 649 372 649 526 q 627 216 649 287 q 564 92 605 145 q 464 12 522 41 q 338 -16 406 -16 q 217 9 269 -16 q 126 87 165 34 l 126 -307 m 126 182 q 342 64 187 64 q 430 86 390 64 q 498 147 469 108 q 544 245 528 189 q 560 370 560 301 q 504 562 560 490 q 357 630 449 630 q 126 475 203 629 l 126 182 z "},"×":{"ha":618,"x_min":28,"x_max":578,"o":"m 521 127 l 303 347 q 194 237 250 294 q 85 127 138 180 l 28 184 l 246 402 q 137 512 193 455 q 28 621 80 568 l 85 678 l 303 459 q 412 569 356 512 q 521 678 469 625 l 578 621 l 360 402 l 578 184 l 521 127 z "},"½":{"ha":1024,"x_min":23,"x_max":982,"o":"m 250 0 l 157 0 l 734 962 l 827 962 l 250 0 m 982 0 l 618 0 l 618 83 l 779 240 q 840 304 817 277 q 875 352 863 331 q 891 391 887 373 q 895 427 895 408 q 804 514 895 514 q 647 435 736 514 l 647 538 q 808 594 730 594 q 880 583 848 594 q 935 550 912 571 q 969 500 957 529 q 981 435 981 471 q 974 384 981 410 q 951 329 968 358 q 907 265 935 299 q 834 187 878 231 l 728 85 l 982 85 l 982 0 m 242 381 l 160 381 l 160 876 q 90 851 127 864 q 23 829 53 839 l 23 914 l 242 983 l 242 381 z "},"¼":{"ha":975,"x_min":23,"x_max":932,"o":"m 241 381 l 159 381 l 159 876 q 90 851 127 864 q 23 829 52 839 l 23 914 l 241 983 l 241 381 m 249 0 l 155 0 l 733 962 l 825 962 l 249 0 m 860 143 l 860 0 l 781 0 l 781 143 l 524 143 l 524 202 l 781 581 l 860 581 l 860 220 l 932 220 l 932 143 l 860 143 m 781 448 q 777 443 779 445 q 774 439 775 441 q 701 330 737 385 q 627 220 665 276 l 781 220 l 781 448 z "},"¾":{"ha":992,"x_min":21,"x_max":948,"o":"m 356 543 q 343 472 356 505 q 304 416 330 440 q 243 378 279 392 q 160 365 206 365 q 21 400 85 365 l 21 495 q 161 443 102 443 q 244 470 214 443 q 273 543 273 497 q 134 639 273 639 l 75 639 l 75 718 l 127 718 q 255 817 255 718 q 168 893 255 893 q 43 850 126 893 l 43 939 q 114 964 79 956 q 180 972 148 972 q 246 962 216 972 q 296 931 275 951 q 328 885 317 912 q 339 825 339 857 q 263 685 339 726 q 332 628 309 666 q 356 543 356 591 m 264 0 l 170 0 l 749 962 l 842 962 l 264 0 m 876 143 l 876 0 l 796 0 l 796 143 l 540 143 l 540 202 l 797 581 l 876 581 l 876 220 l 948 220 l 948 143 l 876 143 m 796 448 q 793 443 794 445 q 790 439 791 441 q 717 330 753 385 q 643 220 681 276 l 796 220 l 796 448 z "},"¯":{"ha":576,"x_min":39,"x_max":621,"o":"m 39 1120 l 39 1204 l 621 1204 l 621 1120 l 39 1120 z "},"¤":{"ha":676,"x_min":28,"x_max":635,"o":"m 577 186 l 490 275 q 332 223 421 223 q 175 275 242 223 l 86 186 l 28 244 l 119 332 q 68 486 68 406 q 119 642 68 577 q 73 686 98 663 q 28 730 48 710 l 86 788 l 176 699 q 332 749 249 749 q 414 736 376 749 q 488 699 453 724 q 533 744 509 720 q 577 788 557 768 l 635 730 l 544 642 q 595 486 595 576 q 545 332 595 401 q 591 287 566 311 q 635 245 615 264 l 577 186 m 333 669 q 201 615 254 669 q 149 488 149 561 q 203 359 149 414 q 332 304 258 304 q 459 358 405 304 q 513 488 513 412 q 458 616 513 564 q 333 669 403 669 z "},"²":{"ha":457,"x_min":26,"x_max":390,"o":"m 390 585 l 26 585 l 26 668 l 185 825 q 247 889 224 862 q 282 937 270 916 q 299 975 295 958 q 302 1012 302 993 q 212 1099 302 1099 q 55 1019 146 1099 l 55 1122 q 136 1164 96 1150 q 216 1179 175 1179 q 288 1167 256 1179 q 342 1135 320 1156 q 377 1085 365 1114 q 389 1020 389 1055 q 382 967 389 994 q 359 912 376 941 q 314 849 342 883 q 241 771 286 814 l 136 669 l 390 669 l 390 585 z "},"³":{"ha":457,"x_min":24,"x_max":359,"o":"m 359 746 q 346 676 359 708 q 307 620 332 644 q 245 582 282 595 q 163 568 209 568 q 24 604 88 568 l 24 699 q 164 646 105 646 q 247 673 217 646 q 277 746 277 701 q 136 842 277 842 l 77 842 l 77 921 l 130 921 q 258 1020 258 921 q 171 1097 258 1097 q 45 1053 129 1097 l 45 1142 q 116 1168 82 1160 q 182 1176 151 1176 q 249 1165 219 1176 q 299 1135 278 1154 q 331 1088 319 1116 q 342 1028 342 1061 q 266 888 342 930 q 335 832 311 869 q 359 746 359 794 z "},"¹":{"ha":457,"x_min":15,"x_max":357,"o":"m 357 585 l 24 585 l 24 664 l 151 664 l 151 1079 q 81 1055 119 1067 q 15 1032 44 1042 l 15 1118 l 233 1187 l 233 664 l 357 664 l 357 585 z "},"ﬆ":{"ha":909,"x_min":4,"x_max":884,"o":"m 422 576 q 262 630 338 630 q 165 599 201 630 q 129 519 129 568 q 151 450 129 477 q 191 420 163 437 q 258 386 218 404 q 349 339 312 362 q 406 296 385 316 q 449 180 449 252 q 385 39 449 95 q 212 -16 320 -16 q 4 50 111 -16 l 45 136 q 91 103 68 117 q 137 81 113 89 q 180 69 160 73 q 216 64 200 64 q 360 180 360 64 q 352 217 360 200 q 328 249 345 233 q 284 278 311 264 q 221 309 258 293 q 81 398 123 352 q 40 515 40 447 q 106 658 40 604 q 269 711 172 711 q 353 701 309 711 q 348 726 349 714 q 347 750 347 738 q 367 831 347 795 q 420 892 388 867 q 491 931 452 918 q 568 945 530 945 q 621 937 596 945 q 664 915 646 930 q 694 875 683 899 q 705 819 705 851 l 705 694 l 881 694 l 881 614 l 705 614 l 705 185 q 724 95 705 123 q 788 67 743 67 q 858 90 821 67 l 884 16 q 828 -6 854 1 q 780 -13 802 -13 q 618 178 618 -13 l 618 614 l 498 614 l 498 694 l 618 694 l 618 804 q 612 833 618 821 q 596 854 606 846 q 572 867 586 863 q 544 871 559 871 q 502 864 523 871 q 464 842 481 857 q 435 807 446 828 q 425 759 425 786 q 433 712 425 739 q 460 654 441 686 l 422 576 z "},"ﬁ":{"ha":581,"x_min":8,"x_max":547,"o":"m 547 694 l 547 0 l 461 0 l 461 614 l 214 614 l 214 0 l 128 0 l 128 614 l 8 614 l 8 694 l 128 694 l 128 798 q 184 967 128 909 q 327 1026 242 1026 q 378 1018 350 1026 q 439 994 406 1010 l 402 919 q 366 939 385 932 q 324 945 347 945 q 214 792 214 945 l 214 694 l 547 694 z "},"ﬀ":{"ha":844,"x_min":19,"x_max":819,"o":"m 508 694 l 508 798 q 565 967 508 909 q 707 1026 623 1026 q 758 1018 730 1026 q 819 994 786 1010 l 782 919 q 705 945 747 945 q 594 792 594 945 l 594 694 l 771 694 l 771 614 l 594 614 l 594 0 l 508 0 l 508 614 l 225 614 l 225 0 l 139 0 l 139 614 l 19 614 l 19 694 l 139 694 l 139 798 q 196 967 139 909 q 338 1026 254 1026 q 389 1018 361 1026 q 450 994 417 1010 l 413 919 q 336 945 378 945 q 225 792 225 945 l 225 694 l 508 694 z "},"ﬃ":{"ha":982,"x_min":23,"x_max":930,"o":"m 930 694 l 930 0 l 844 0 l 844 614 l 598 614 l 598 0 l 512 0 l 512 614 l 229 614 l 229 0 l 143 0 l 143 614 l 23 614 l 23 694 l 143 694 l 143 798 q 199 967 143 909 q 342 1026 257 1026 q 393 1018 365 1026 q 454 994 420 1010 l 417 919 q 380 939 399 932 q 339 945 361 945 q 229 792 229 945 l 229 694 l 512 694 l 512 798 q 568 967 512 910 q 711 1026 626 1026 q 761 1018 733 1026 q 823 994 789 1010 l 786 919 q 749 939 768 932 q 708 945 730 945 q 598 792 598 945 l 598 694 l 930 694 z "},"ﬂ":{"ha":758,"x_min":16,"x_max":731,"o":"m 469 880 q 423 927 457 909 q 332 945 389 945 q 222 792 222 945 l 222 694 l 399 694 l 399 614 l 222 614 l 222 0 l 136 0 l 136 614 l 16 614 l 16 694 l 136 694 l 136 798 q 193 967 136 909 q 335 1026 250 1026 q 555 882 532 1026 l 555 185 q 574 95 555 123 q 637 67 593 67 q 731 100 671 67 l 731 14 q 677 -6 703 0 q 630 -13 652 -13 q 469 178 469 -13 l 469 880 z "},"ﬄ":{"ha":1158,"x_min":27,"x_max":1112,"o":"m 517 694 l 517 798 q 574 967 517 909 q 715 1026 631 1026 q 936 882 913 1026 l 936 185 q 955 95 936 123 q 1019 67 974 67 q 1112 100 1053 67 l 1112 14 q 1058 -6 1084 0 q 1010 -13 1033 -13 q 850 178 850 -13 l 850 880 q 804 927 838 909 q 713 945 769 945 q 603 792 603 945 l 603 694 l 780 694 l 780 614 l 603 614 l 603 0 l 517 0 l 517 614 l 233 614 l 233 0 l 147 0 l 147 614 l 27 614 l 27 694 l 147 694 l 147 798 q 204 967 147 909 q 347 1026 262 1026 q 397 1018 369 1026 q 458 994 425 1010 l 421 919 q 344 945 387 945 q 233 792 233 945 l 233 694 l 517 694 z "},"æ":{"ha":1238,"x_min":166,"x_max":1187,"o":"m 256 188 q 291 99 256 134 q 334 73 309 82 q 392 64 359 64 q 475 76 439 64 q 540 111 511 87 l 540 110 q 602 185 595 155 l 602 286 q 519 325 560 313 q 439 337 477 337 q 367 326 400 337 q 309 296 334 315 q 270 249 283 276 q 256 188 256 221 m 616 658 q 644 620 632 639 q 666 583 656 602 q 916 711 749 711 q 1118 618 1047 711 q 1187 372 1187 528 l 1187 332 l 692 332 q 710 222 695 273 q 753 138 724 172 q 918 64 812 64 q 1121 142 1025 64 l 1162 74 q 905 -16 1038 -16 q 651 122 730 -16 q 523 17 587 50 q 386 -16 460 -16 q 226 41 286 -16 q 166 186 166 98 q 195 285 172 243 q 255 356 219 328 q 337 399 292 385 q 432 414 383 414 q 519 402 475 414 q 604 368 563 391 q 603 409 604 388 q 603 449 603 429 q 562 584 598 537 q 455 630 525 630 q 248 545 339 629 l 193 603 q 460 711 296 712 q 616 658 570 711 m 1098 412 q 1044 574 1091 517 q 913 630 996 630 q 832 615 869 630 q 767 570 795 600 q 697 412 713 514 l 1098 412 z "},"Ç":{"ha":809,"x_min":26,"x_max":785,"o":"m 479 -16 q 152 117 279 -16 q 26 467 26 253 q 163 845 26 703 q 510 988 300 988 q 785 883 665 985 l 713 818 q 616 882 667 861 q 509 903 565 903 q 229 786 337 903 q 121 474 121 669 q 223 178 121 286 l 222 178 q 484 70 325 70 q 592 91 541 70 q 689 155 643 112 l 761 90 q 479 -16 640 -14 m 282 -204 q 351 -210 331 -210 q 443 -163 443 -210 q 361 -120 443 -120 q 338 -121 351 -120 q 306 -125 324 -122 l 306 26 l 379 26 l 379 -50 q 526 -159 526 -54 q 347 -283 526 -283 q 282 -279 323 -283 l 282 -204 z "},"Ñ":{"ha":838,"x_min":42,"x_max":783,"o":"m 718 0 l 150 770 q 142 781 146 775 q 134 793 138 787 l 134 0 l 42 0 l 42 972 l 112 972 l 675 209 q 684 198 680 203 q 692 184 688 192 q 692 203 692 195 q 692 220 692 212 l 692 972 l 783 972 l 783 0 l 718 0 m 635 1233 q 626 1161 635 1193 q 600 1107 616 1130 q 558 1073 583 1085 q 505 1061 534 1061 q 454 1075 481 1061 q 397 1114 427 1089 q 328 1147 361 1147 q 275 1053 275 1147 l 202 1053 q 236 1179 202 1137 q 277 1212 254 1200 q 330 1224 300 1224 q 443 1173 380 1224 q 511 1138 484 1138 q 546 1162 531 1138 q 560 1233 560 1186 l 635 1233 z "},"Ä":{"ha":832,"x_min":5,"x_max":815,"o":"m 713 0 l 606 294 l 214 294 q 159 147 187 222 q 105 0 131 71 l 5 0 l 372 972 l 452 972 l 815 0 l 713 0 m 420 800 q 414 817 416 808 q 410 833 412 825 q 399 801 404 814 l 399 802 q 360 695 379 747 q 322 591 341 643 q 285 487 304 539 q 246 380 266 435 l 573 380 l 420 800 m 524 1053 q 502 1058 512 1053 q 483 1070 491 1062 q 469 1089 474 1078 q 464 1114 464 1100 q 469 1137 464 1126 q 482 1156 474 1148 q 501 1167 490 1163 q 522 1172 511 1172 q 546 1167 534 1172 q 566 1155 557 1163 q 580 1137 574 1147 q 585 1114 585 1126 q 567 1070 585 1088 q 524 1053 549 1053 m 307 1053 q 264 1069 283 1053 q 246 1114 246 1086 q 251 1137 246 1126 q 264 1156 256 1148 q 283 1167 273 1163 q 305 1172 294 1172 q 328 1167 317 1172 q 348 1155 339 1163 q 362 1137 357 1147 q 367 1114 367 1126 q 350 1070 367 1088 q 307 1053 332 1053 z "},"Â":{"ha":832,"x_min":5,"x_max":815,"o":"m 713 0 l 606 294 l 214 294 q 159 147 187 222 q 105 0 131 71 l 5 0 l 372 972 l 452 972 l 815 0 l 713 0 m 420 800 q 414 817 416 808 q 410 833 412 825 q 399 801 404 814 l 399 802 q 360 695 379 747 q 322 591 341 643 q 285 487 304 539 q 246 380 266 435 l 573 380 l 420 800 m 511 1053 l 416 1199 q 367 1126 393 1165 q 319 1053 340 1086 l 233 1053 l 395 1299 l 439 1299 l 598 1053 l 511 1053 z "},"À":{"ha":832,"x_min":5,"x_max":815,"o":"m 713 0 l 606 294 l 214 294 q 159 147 187 222 q 105 0 131 71 l 5 0 l 372 972 l 452 972 l 815 0 l 713 0 m 420 800 q 414 817 416 808 q 410 833 412 825 q 399 801 404 814 l 399 802 q 360 695 379 747 q 322 591 341 643 q 285 487 304 539 q 246 380 266 435 l 573 380 l 420 800 m 461 1053 l 279 1294 l 380 1294 l 552 1053 l 461 1053 z "},"Á":{"ha":832,"x_min":5,"x_max":815,"o":"m 713 0 l 606 294 l 214 294 q 159 147 187 222 q 105 0 131 71 l 5 0 l 372 972 l 452 972 l 815 0 l 713 0 m 420 800 q 414 817 416 808 q 410 833 412 825 q 399 801 404 814 l 399 802 q 360 695 379 747 q 322 591 341 643 q 285 487 304 539 q 246 380 266 435 l 573 380 l 420 800 m 370 1053 l 279 1053 l 452 1294 l 552 1294 l 370 1053 z "},"Ã":{"ha":832,"x_min":5,"x_max":815,"o":"m 713 0 l 606 294 l 214 294 q 159 147 187 222 q 105 0 131 71 l 5 0 l 372 972 l 452 972 l 815 0 l 713 0 m 420 800 q 414 817 416 808 q 410 833 412 825 q 399 801 404 814 l 399 802 q 360 695 379 747 q 322 591 341 643 q 285 487 304 539 q 246 380 266 435 l 573 380 l 420 800 m 632 1233 q 623 1161 632 1193 q 597 1107 614 1130 q 556 1073 580 1085 q 502 1061 532 1061 q 451 1075 478 1061 q 395 1114 424 1089 q 326 1147 358 1147 q 272 1053 272 1147 l 199 1053 q 233 1179 199 1137 q 274 1212 251 1200 q 327 1224 298 1224 q 440 1173 378 1224 q 508 1138 481 1138 q 543 1162 528 1138 q 557 1233 557 1186 l 632 1233 z "},"Ö":{"ha":981,"x_min":28,"x_max":939,"o":"m 480 -16 q 151 121 274 -16 q 28 476 28 258 q 154 847 28 707 q 498 988 280 988 q 817 852 696 988 q 939 500 939 718 q 815 123 939 261 q 480 -16 688 -16 m 487 903 q 225 788 328 903 q 122 484 122 671 q 220 181 122 293 q 479 70 315 70 q 631 98 564 70 q 747 180 698 127 q 820 313 794 235 q 846 490 846 392 q 749 794 846 687 q 487 903 652 903 m 598 1053 q 576 1058 587 1053 q 557 1070 566 1062 q 544 1089 549 1078 q 538 1114 538 1100 q 544 1137 538 1126 q 557 1156 549 1148 q 575 1167 565 1163 q 597 1172 586 1172 q 620 1167 609 1172 q 640 1155 631 1163 q 654 1137 649 1147 q 660 1114 660 1126 q 642 1070 660 1088 q 598 1053 624 1053 m 381 1053 q 339 1069 357 1053 q 321 1114 321 1086 q 326 1137 321 1126 q 339 1156 331 1148 q 358 1167 347 1163 q 380 1172 368 1172 q 403 1167 392 1172 q 422 1155 414 1163 q 436 1137 431 1147 q 441 1114 441 1126 q 424 1070 441 1088 q 381 1053 407 1053 z "},"Õ":{"ha":981,"x_min":28,"x_max":939,"o":"m 480 -16 q 151 121 274 -16 q 28 476 28 258 q 154 847 28 707 q 498 988 280 988 q 817 852 696 988 q 939 500 939 718 q 815 123 939 261 q 480 -16 688 -16 m 487 903 q 225 788 328 903 q 122 484 122 671 q 220 181 122 293 q 479 70 315 70 q 631 98 564 70 q 747 180 698 127 q 820 313 794 235 q 846 490 846 392 q 749 794 846 687 q 487 903 652 903 m 707 1233 q 697 1161 707 1193 q 671 1107 688 1130 q 630 1073 654 1085 q 576 1061 606 1061 q 526 1075 553 1061 q 469 1114 498 1089 q 400 1147 433 1147 q 347 1053 347 1147 l 274 1053 q 308 1179 274 1137 q 349 1212 326 1200 q 401 1224 372 1224 q 515 1173 452 1224 q 583 1138 555 1138 q 617 1162 603 1138 q 632 1233 632 1186 l 707 1233 z "},"Ô":{"ha":981,"x_min":28,"x_max":939,"o":"m 480 -16 q 151 121 274 -16 q 28 476 28 258 q 154 847 28 707 q 498 988 280 988 q 817 852 696 988 q 939 500 939 718 q 815 123 939 261 q 480 -16 688 -16 m 487 903 q 225 788 328 903 q 122 484 122 671 q 220 181 122 293 q 479 70 315 70 q 631 98 564 70 q 747 180 698 127 q 820 313 794 235 q 846 490 846 392 q 749 794 846 687 q 487 903 652 903 m 585 1053 l 490 1199 q 441 1126 467 1165 q 393 1053 415 1086 l 308 1053 l 469 1299 l 513 1299 l 673 1053 l 585 1053 z "},"Ó":{"ha":981,"x_min":28,"x_max":939,"o":"m 480 -16 q 151 121 274 -16 q 28 476 28 258 q 154 847 28 707 q 498 988 280 988 q 817 852 696 988 q 939 500 939 718 q 815 123 939 261 q 480 -16 688 -16 m 487 903 q 225 788 328 903 q 122 484 122 671 q 220 181 122 293 q 479 70 315 70 q 631 98 564 70 q 747 180 698 127 q 820 313 794 235 q 846 490 846 392 q 749 794 846 687 q 487 903 652 903 m 445 1053 l 354 1053 l 526 1294 l 627 1294 l 445 1053 z "},"Ò":{"ha":981,"x_min":28,"x_max":939,"o":"m 480 -16 q 151 121 274 -16 q 28 476 28 258 q 154 847 28 707 q 498 988 280 988 q 817 852 696 988 q 939 500 939 718 q 815 123 939 261 q 480 -16 688 -16 m 487 903 q 225 788 328 903 q 122 484 122 671 q 220 181 122 293 q 479 70 315 70 q 631 98 564 70 q 747 180 698 127 q 820 313 794 235 q 846 490 846 392 q 749 794 846 687 q 487 903 652 903 m 536 1053 l 354 1294 l 455 1294 l 627 1053 l 536 1053 z "}}}
